<svg xmlns="http://www.w3.org/2000/svg" xmlns:xlink="http://www.w3.org/1999/xlink" version="1.1" x="0px" y="0px" viewBox="0 0 48 60" fill="rgb(203, 173, 118)" style="enable-background:new 0 0 48 48;" xml:space="preserve"><g><g><path d="M19.33,45L2.98,28.65c-0.58-0.58-0.58-1.52,0-2.1L26.53,3c0.32-0.32,0.77-0.48,1.22-0.43l14.72,1.64    c0.69,0.08,1.24,0.62,1.31,1.31l1.64,14.72c0.05,0.45-0.11,0.9-0.43,1.22L21.44,45C20.86,45.58,19.92,45.58,19.33,45z M6.14,27.6    l14.25,14.25l21.99-21.99L40.95,7.03L28.13,5.61L6.14,27.6z"/></g><g><path d="M31.32,16.66c-1.99-1.99-1.99-5.23,0-7.23s5.23-1.99,7.23,0c1.99,1.99,1.99,5.23,0,7.23    C36.56,18.66,33.31,18.66,31.32,16.66z M36.44,11.54c-0.83-0.83-2.18-0.83-3.02,0s-0.83,2.18,0,3.02c0.83,0.83,2.18,0.83,3.02,0    C37.27,13.73,37.27,12.37,36.44,11.54z"/></g></g></svg>