<svg xmlns="http://www.w3.org/2000/svg" xmlns:xlink="http://www.w3.org/1999/xlink" version="1.1" x="0px" y="0px" fill="rgb(203, 173, 118)" style="enable-background:new 0 0 100 100;" xml:space="preserve" viewBox="10 10 80 80"><path d="M55.75,36.13c-4.74,0-8.6,3.86-8.6,8.6c0,4.74,3.86,8.6,8.6,8.6s8.6-3.86,8.6-8.6C64.35,39.99,60.49,36.13,55.75,36.13z   M55.75,50.12c-2.97,0-5.39-2.42-5.39-5.39c0-2.97,2.42-5.39,5.39-5.39c2.97,0,5.39,2.42,5.39,5.39  C61.14,47.7,58.73,50.12,55.75,50.12z"/><path d="M84.91,10H22.27c-2.81,0-5.09,2.28-5.09,5.09v2.09h-2.09c-2.81,0-5.09,2.28-5.09,5.09v39.15c0,0,0,0,0,0v23.49  c0,2.81,2.28,5.09,5.09,5.09h62.64c2.81,0,5.09-2.28,5.09-5.09v-2.09h2.09c2.81,0,5.09-2.28,5.09-5.09V15.09  C90,12.28,87.72,10,84.91,10z M79.62,84.91c0,1.04-0.85,1.89-1.89,1.89H15.09c-1.04,0-1.89-0.85-1.89-1.89V62.09l15.25-15.25  c0.74-0.74,1.93-0.74,2.67,0l21.81,21.81c0,0,0,0,0,0s0,0,0,0l8.66,8.66c0.31,0.31,0.72,0.47,1.13,0.47c0.41,0,0.82-0.16,1.13-0.47  c0.63-0.63,0.63-1.64,0-2.27l-7.53-7.53l9.84-9.84c0.36-0.36,0.83-0.55,1.33-0.55c0.5,0,0.98,0.2,1.33,0.55l10.77,10.77V84.91z   M79.62,63.91l-8.51-8.51c-0.96-0.96-2.24-1.49-3.6-1.49s-2.64,0.53-3.6,1.49l-9.84,9.84L33.39,44.57c-1.98-1.98-5.21-1.98-7.2,0  L13.2,57.56V22.27c0-1.04,0.85-1.89,1.89-1.89h62.64c1.04,0,1.89,0.85,1.89,1.89V63.91z M86.8,77.73c0,1.04-0.85,1.89-1.89,1.89  h-2.09V22.27c0-2.81-2.28-5.09-5.09-5.09H20.38v-2.09c0-1.04,0.85-1.89,1.89-1.89h62.64c1.04,0,1.89,0.85,1.89,1.89V77.73z"/></svg>