<svg xmlns="http://www.w3.org/2000/svg" xmlns:xlink="http://www.w3.org/1999/xlink" version="1.1" x="0px" y="0px" fill="rgb(203, 173, 118)" enable-background="new 0 0 90 90" xml:space="preserve" viewBox="3.75 11.13 82.53 67.62"><path d="M11.494,14.438h59.318c2.488,0,4.447,1.952,4.447,4.443v43.687c0,2.489-1.959,4.442-4.447,4.442H11.494  c-2.49,0-4.443-1.953-4.443-4.442V18.881C7.051,16.39,9.004,14.438,11.494,14.438z M11.494,11.151c-4.256,0-7.74,3.474-7.74,7.73  v43.687c0,4.256,3.484,7.734,7.74,7.734h59.318c4.254,0,7.729-3.479,7.729-7.734V18.881c0-4.256-3.475-7.73-7.729-7.73H11.494z"/><path d="M28.957,25.646c1.709,2.463,1.1,5.796-1.369,7.505c-2.463,1.703-5.791,1.099-7.494-1.365  c-1.709-2.468-1.109-5.795,1.359-7.505C23.916,22.573,27.254,23.182,28.957,25.646z M31.66,23.775  c-2.719-3.927-8.156-4.911-12.078-2.197c-3.926,2.719-4.916,8.156-2.197,12.083c2.719,3.922,8.15,4.912,12.078,2.193  S34.379,27.703,31.66,23.775z"/><path d="M59.969,25.422c-0.428,0.03-0.828,0.224-1.115,0.547L35.91,50.703L22.676,41.1c-0.619-0.454-1.473-0.417-2.051,0.088  L4.775,55.062c-0.729,0.584-0.828,1.662-0.209,2.365c0.615,0.703,1.693,0.755,2.371,0.104l14.869-13.005l13.354,9.697  c0.672,0.491,1.605,0.396,2.168-0.214L61.27,28.198C62.307,27.114,61.469,25.323,59.969,25.422z"/><path d="M36.031,51.234c-0.428,0.032-0.824,0.224-1.109,0.541l-6.266,6.756c-0.662,0.662-0.641,1.735,0.047,2.37  c0.688,0.635,1.76,0.567,2.369-0.141l6.256-6.751C38.363,52.927,37.525,51.135,36.031,51.234z"/><path d="M59.947,25.422c-1.396,0.083-2.057,1.76-1.094,2.776l16.193,17.459c1.488,1.609,3.9-0.631,2.41-2.235L61.27,25.969  C60.938,25.594,60.447,25.395,59.947,25.422z"/><path d="M78.541,19.588c-2.193,0-2.193,3.296,0,3.296c2.49,0,4.438,1.953,4.438,4.442v43.682c0,2.495-1.947,4.449-4.438,4.449  H19.213c-2.49,0-4.443-1.954-4.443-4.449c0.047-0.932-0.703-1.718-1.641-1.718s-1.688,0.786-1.645,1.718  c0,4.256,3.473,7.73,7.729,7.73h59.328c4.256,0,7.729-3.474,7.729-7.73V27.327C86.27,23.073,82.797,19.588,78.541,19.588z"/></svg>