<svg xmlns="http://www.w3.org/2000/svg" xmlns:xlink="http://www.w3.org/1999/xlink" version="1.1" x="0px" y="0px" viewBox="0 0 32 40" fill="rgb(203, 173, 118)" enable-background="new 0 0 32 32" xml:space="preserve"><path d="M28,6h-2h-3.3815918l-1.723877-3.4472656C20.7246094,2.2138672,20.3789063,2,20,2h-8  c-0.3789063,0-0.7250977,0.2138672-0.8945313,0.5527344L9.3818359,6H6H4C3.4477539,6,3,6.4477539,3,7s0.4477539,1,1,1h1v17  c0,2.7568359,2.2431641,5,5,5h12c2.7568359,0,5-2.2431641,5-5V8h1c0.5527344,0,1-0.4477539,1-1S28.5527344,6,28,6z M12.6181641,4  h6.7636719l1,2h-8.7636719L12.6181641,4z M25,25c0,1.6542969-1.3457031,3-3,3H10c-1.6542969,0-3-1.3457031-3-3V8h3h12  c0.0068359,0.0004883,0.0146484,0,0.0195313,0H25V25z M22,12v12c0,0.5527344-0.4472656,1-1,1s-1-0.4472656-1-1V12  c0-0.5522461,0.4472656-1,1-1S22,11.4477539,22,12z M17,12v12c0,0.5527344-0.4477539,1-1,1s-1-0.4472656-1-1V12  c0-0.5522461,0.4477539-1,1-1S17,11.4477539,17,12z M12,12v12c0,0.5527344-0.4477539,1-1,1s-1-0.4472656-1-1V12  c0-0.5522461,0.4477539-1,1-1S12,11.4477539,12,12z"/></svg>