<svg xmlns="http://www.w3.org/2000/svg" viewBox="0 0 64 80" fill="none" x="0px" y="0px"><path fill-rule="evenodd" clip-rule="evenodd" d="M44.1309 4.11544C46.9515 1.29485 51.5245 1.29485 54.3451 4.11544L59.8845 9.65479C62.705 12.4754 62.705 17.0484 59.8845 19.869L21.109 58.6445C20.8188 58.9347 20.4464 59.1286 20.0423 59.1999L4.34748 61.9696C3.70478 62.083 3.04717 61.8757 2.58569 61.4142C2.12421 60.9527 1.91692 60.2951 2.03034 59.6524L4.80002 43.9576C4.87133 43.5535 5.06521 43.1811 5.35537 42.8909L44.1309 4.11544ZM51.5167 6.94386C50.2582 5.68538 48.2178 5.68538 46.9593 6.94386L45.6038 8.29933L55.7006 18.3961L57.056 17.0406C58.3145 15.7821 58.3145 13.7417 57.056 12.4832L51.5167 6.94386ZM52.8721 21.2245L42.7754 11.1278L40.9877 12.9155L51.0844 23.0122L52.8721 21.2245ZM48.256 25.8406L38.1593 15.7439L9.59801 44.3052L19.6947 54.4019L48.256 25.8406ZM15.5643 55.9283L6.466 57.5339L8.07159 48.4356L15.5643 55.9283Z" fill="rgb(203, 173, 118)"/></svg>