<svg xmlns="http://www.w3.org/2000/svg" xmlns:xlink="http://www.w3.org/1999/xlink" version="1.1" x="0px" y="0px" viewBox="0 0 64 80" fill="rgb(203, 173, 118)" style="enable-background:new 0 0 64 64;" xml:space="preserve"><path d="M33.38,23.21c-0.7,0.55-1.66,1.3-1.66,2.79s0.96,2.24,1.66,2.79c0.65,0.51,0.9,0.74,0.9,1.21c0,0.55,0.45,1,1,1s1-0.45,1-1  c0-1.49-0.96-2.24-1.66-2.79c-0.65-0.51-0.9-0.74-0.9-1.21s0.25-0.71,0.9-1.21c0.7-0.55,1.66-1.3,1.66-2.79  c0-1.49-0.96-2.24-1.66-2.79c-0.65-0.51-0.9-0.74-0.9-1.21c0-0.47,0.25-0.7,0.9-1.21c0.7-0.55,1.66-1.3,1.66-2.79c0-0.55-0.45-1-1-1  s-1,0.45-1,1c0,0.47-0.25,0.7-0.9,1.21c-0.7,0.55-1.66,1.3-1.66,2.79s0.96,2.24,1.67,2.79c0.65,0.51,0.89,0.74,0.89,1.21  C34.28,22.46,34.03,22.7,33.38,23.21z"/><path d="M26.38,23.21c-0.7,0.55-1.66,1.3-1.66,2.79s0.96,2.24,1.66,2.79c0.65,0.51,0.9,0.74,0.9,1.21c0,0.55,0.45,1,1,1s1-0.45,1-1  c0-1.49-0.96-2.24-1.66-2.79c-0.65-0.51-0.9-0.74-0.9-1.21s0.25-0.71,0.9-1.21c0.7-0.55,1.66-1.3,1.66-2.79  c0-1.49-0.96-2.24-1.66-2.79c-0.65-0.51-0.9-0.74-0.9-1.21c0-0.47,0.25-0.7,0.9-1.21c0.7-0.55,1.66-1.3,1.66-2.79c0-0.55-0.45-1-1-1  s-1,0.45-1,1c0,0.47-0.25,0.7-0.9,1.21c-0.7,0.55-1.66,1.3-1.66,2.79s0.96,2.24,1.67,2.79c0.65,0.51,0.89,0.74,0.89,1.21  C27.28,22.46,27.03,22.7,26.38,23.21z"/><path d="M19.38,23.21c-0.7,0.55-1.66,1.3-1.66,2.79s0.96,2.24,1.66,2.79c0.65,0.51,0.9,0.74,0.9,1.21c0,0.55,0.45,1,1,1s1-0.45,1-1  c0-1.49-0.96-2.24-1.66-2.79c-0.65-0.51-0.9-0.74-0.9-1.21s0.25-0.71,0.9-1.21c0.7-0.55,1.66-1.3,1.66-2.79  c0-1.49-0.96-2.24-1.66-2.79c-0.65-0.51-0.9-0.74-0.9-1.21c0-0.47,0.25-0.7,0.9-1.21c0.7-0.55,1.66-1.3,1.66-2.79c0-0.55-0.45-1-1-1  s-1,0.45-1,1c0,0.47-0.25,0.7-0.9,1.21c-0.7,0.55-1.66,1.3-1.66,2.79s0.96,2.24,1.67,2.79c0.65,0.51,0.89,0.74,0.89,1.21  C20.28,22.46,20.03,22.7,19.38,23.21z"/><path d="M50,1c-3.86,0-7,3.14-7,7v33h4V8c0-1.65,1.35-3,3-3s3,1.35,3,3v7c0,1.1,0.9,2,2,2s2-0.9,2-2V8C57,4.14,53.86,1,50,1z"/><path d="M27,63c11.05,0,20-8.95,20-20H7C7,54.05,15.95,63,27,63z M11.26,46.03c0.53-0.14,1.08,0.18,1.22,0.72  C14.19,53.37,20.16,58,27,58c0.55,0,1,0.45,1,1s-0.45,1-1,1c-7.75,0-14.52-5.24-16.46-12.75C10.4,46.71,10.72,46.17,11.26,46.03z"/></svg>