<svg xmlns="http://www.w3.org/2000/svg" xmlns:xlink="http://www.w3.org/1999/xlink" version="1.1" x="0px" y="0px" viewBox="0 0 52 65" enable-background="new 0 0 52 52" xml:space="preserve"><g><g><path d="M38.2006836,49.6860352H13.7993164c-2.7568359,0-5-2.2431641-5-5V22.7651367c0-0.5527344,0.4477539-1,1-1h32.4013672    c0.5522461,0,1,0.4472656,1,1v21.9208984C43.2006836,47.4428711,40.9575195,49.6860352,38.2006836,49.6860352z     M10.7993164,23.7651367v20.9208984c0,1.6542969,1.3457031,3,3,3h24.4013672c1.6542969,0,3-1.3457031,3-3V23.7651367H10.7993164z"/></g><g><path d="M42.2006836,19.4448242H9.7993164c-0.5522461,0-1-0.4472656-1-1v-0.4804688c0-3.859375,3.1401367-7,7-7h20.4013672    c3.8598633,0,7,3.140625,7,7v0.4804688C43.2006836,18.9975586,42.7529297,19.4448242,42.2006836,19.4448242z     M10.8261719,17.4448242h30.3476563c-0.2607422-2.5136719-2.3916016-4.4804688-4.9731445-4.4804688H15.7993164    C13.2177734,12.9643555,11.0869141,14.9311523,10.8261719,17.4448242z"/></g><g><path d="M28.1601563,12.9643555h-4.3203125c-0.5522461,0-1-0.4472656-1-1V9.3647461    c-0.6914063-0.7744141-1.0800781-1.7763672-1.0800781-2.8105469c0-2.3378906,1.9023438-4.2402344,4.2402344-4.2402344    s4.2402344,1.9023438,4.2402344,4.2402344c0,1.0341797-0.3886719,2.0361328-1.0800781,2.8105469v2.5996094    C29.1601563,12.5170898,28.7124023,12.9643555,28.1601563,12.9643555z M24.8398438,10.9643555h2.3203125V8.9536133    c0-0.2832031,0.1201172-0.5537109,0.3305664-0.7431641c0.4833984-0.4355469,0.7495117-1.0234375,0.7495117-1.65625    c0-1.2353516-1.0048828-2.2402344-2.2402344-2.2402344s-2.2402344,1.0048828-2.2402344,2.2402344    c0,0.6328125,0.2661133,1.2207031,0.7495117,1.65625c0.2104492,0.1894531,0.3305664,0.4599609,0.3305664,0.7431641V10.9643555z"/></g><g><path d="M9.7993164,31.1616211H3c-0.5522461,0-1-0.4472656-1-1v-0.3203125c0-2.7568359,2.2431641-5,5-5h2.7993164    c0.5522461,0,1,0.4472656,1,1v4.3203125C10.7993164,30.7143555,10.3515625,31.1616211,9.7993164,31.1616211z     M4.0776367,29.1616211h4.7216797v-2.3203125H7C5.5795898,26.8413086,4.3862305,27.8334961,4.0776367,29.1616211z"/></g><g><path d="M49,31.1616211h-6.7993164c-0.5522461,0-1-0.4472656-1-1v-4.3203125c0-0.5527344,0.4477539-1,1-1H45    c2.7568359,0,5,2.2431641,5,5v0.3203125C50,30.7143555,49.5522461,31.1616211,49,31.1616211z M43.2006836,29.1616211h4.7216797    C47.6137695,27.8334961,46.4204102,26.8413086,45,26.8413086h-1.7993164V29.1616211z"/></g></g><text x="0" y="67" fill="#000000" font-size="5px" font-weight="bold" font-family="'Helvetica Neue', Helvetica, Arial-Unicode, Arial, Sans-serif">Created by DinosoftLabs</text><text x="0" y="72" fill="#000000" font-size="5px" font-weight="bold" font-family="'Helvetica Neue', Helvetica, Arial-Unicode, Arial, Sans-serif">from the Noun Project</text></svg>