<svg xmlns="http://www.w3.org/2000/svg" xmlns:xlink="http://www.w3.org/1999/xlink" version="1.1" x="0px" y="0px" viewBox="0 0 100 125" style="enable-background:new 0 0 100 100;" xml:space="preserve"><g><path d="M23.4,19.3c1-0.8,2.3-1.3,3.7-1.3c14.6,0,29.1,0,43.7,0c2.1,0,4.2,1.2,5,3.2c0.4,0.9,0.5,1.9,0.5,2.9c0,9.1,0,18.3,0,27.4   c-1.2-0.6-2.4-1.2-3.7-1.6c0-8.8,0-17.7,0-26.5c0-0.9-0.8-1.7-1.7-1.7c-2.5,0-5,0-7.6,0c-0.7,3.2-1.3,6.4-2,9.6   c-0.5,2.3-2.8,4.1-5.1,4.1c-4.9,0-9.8,0-14.8,0c-2.5,0-4.8-1.9-5.3-4.3c-0.6-3.1-1.3-6.3-1.9-9.4c-2.4,0-4.9,0-7.3,0   c-0.7,0-1.4,0.3-1.7,0.9c-0.4,0.6-0.2,1.3-0.3,1.9c0,17.6,0,35.3,0,52.9c-0.1,1,0.7,1.9,1.7,1.9c7.9,0,15.8,0,23.8,0   c0.9,1.3,2,2.6,3.2,3.7c-9,0-18,0-27,0c-1.7,0-3.3-0.8-4.3-2.2c-0.7-1-1.1-2.2-1.1-3.4c0-17.9,0-35.9,0-53.8   C21.4,21.9,22.1,20.3,23.4,19.3 M38.1,21.7c0.6,2.8,1.1,5.7,1.6,8.5c0.1,0.9,1.1,1.6,2,1.5c4.8,0,9.5,0,14.3,0   c0.8,0,1.7-0.5,1.8-1.3c0.6-2.9,1.2-5.8,1.8-8.7C52.5,21.7,45.3,21.7,38.1,21.7z"/><path d="M31.9,44.5c3.5,0,6.9,0,10.4,0c0,0.9,0,1.9,0,2.8c-3.5,0-6.9,0-10.4,0C31.9,46.4,31.9,45.4,31.9,44.5z"/><path d="M31.9,49.5c5.6,0,11.1,0,16.7,0c0,0.9,0,1.9,0,2.8c-5.6,0-11.1,0-16.7,0C31.9,51.3,31.9,50.4,31.9,49.5z"/><path d="M58.7,55.1c0.3-0.5,1.1-0.5,1.5,0c1.7,2.3,3.3,4.6,5,6.9c0.8,1.1,1,2.5,0.4,3.8c3,4,6,8,9.1,12c0.8,1.1,0.6,2.8-0.5,3.6   c-1.1,0.8-2.8,0.6-3.6-0.6c-2.8-4.2-5.5-8.4-8.4-12.5c-1.2,0-2.5-0.5-3.3-1.5c-1.7-2.4-3.5-4.8-5.1-7.2c-0.5-0.9,0.8-1.8,1.5-1   c1.5,2,2.9,4.1,4.4,6.1c0.4,0.5,0.7,1.2,1.4,1.5c0.8,0.5,2.1-0.1,2.7,0.9c2.6,3.8,5.2,7.7,7.8,11.5c0.4,0.6,0.7,1.3,1.4,1.6   c0.5-0.2,1-0.8,0.5-1.3c-2.9-3.8-5.8-7.5-8.8-11.3c-0.3-0.4-0.8-0.8-0.9-1.4c-0.1-0.6,0.4-1.2,0.4-1.8c0-0.5-0.3-0.9-0.5-1.2   c-1.6-2.3-3.2-4.5-4.9-6.8C58.5,55.9,58.5,55.4,58.7,55.1z"/><path d="M73.9,54.9c1.3-0.4,2.8-0.4,3.9,0.5c1.1,0.9,1.6,2.4,1.6,3.8c-0.1,1.9-0.9,3.8-2.1,5.3c-1.1,1.4-2.5,2.7-4.2,3.3   c-0.6,0.2-1.4,0.2-1.9,0.7c-0.3,0.2-0.7,0.5-1.1,0.4c-0.7,0-0.9-0.9-0.5-1.4c0.7-0.9,1.8-1,2.8-1.3c2.6-1,4.5-3.5,5-6.2   c0.3-1.1,0.1-2.3-0.8-3.1c-0.7-0.6-1.8-0.4-2.6,0c-2.3,1.1-4,3.3-4.7,5.8c-0.5,1.4,0.2,2.9-0.4,4.3c-0.4,0.6-1.4,0.3-1.6-0.4   c0-0.5,0.2-1,0.1-1.5c-0.3-2.1,0.4-4.2,1.5-5.9C70.1,57.2,71.8,55.6,73.9,54.9z"/><path d="M56.6,56.5c0.5-0.2,1-0.1,1.3,0.4c1.4,2,2.8,4.1,4.2,6.1c0.2,0.4,0.6,0.8,0.3,1.3c-0.4,0.6-1.4,0.5-1.7-0.1   c-1.5-2.1-2.9-4.2-4.4-6.3C56,57.4,56.1,56.7,56.6,56.5z"/><path d="M62.9,72.1c0.7-0.5,1.6,0.3,1.3,1.1c-1.4,1.9-2.8,3.6-4.2,5.5c-0.3,0.4-0.1,1.2,0.4,1.2c0.4,0.1,0.8-0.1,1-0.4   c1.1-1.6,2.1-3.2,3.2-4.7c0.6-0.6,1.9,0,1.5,0.9c-0.9,1.7-2.1,3.2-3.1,4.8c-0.7,1.3-2.5,1.9-3.8,1c-1.3-0.8-1.6-2.9-0.5-4   C60.1,75.7,61.4,73.8,62.9,72.1z"/></g><text x="0" y="115" fill="#000000" font-size="5px" font-weight="bold" font-family="'Helvetica Neue', Helvetica, Arial-Unicode, Arial, Sans-serif">Created by Ehsan Madadi</text><text x="0" y="120" fill="#000000" font-size="5px" font-weight="bold" font-family="'Helvetica Neue', Helvetica, Arial-Unicode, Arial, Sans-serif">from the Noun Project</text></svg>