<svg xmlns="http://www.w3.org/2000/svg" xmlns:xlink="http://www.w3.org/1999/xlink" version="1.1" x="0px" y="0px" viewBox="0 0 100 125" style="enable-background:new 0 0 100 100;" xml:space="preserve" fill="rgb(203, 173, 118)" width="190"><g><path d="M95.87,27.36c-0.07-0.04-0.16-0.05-0.24-0.08c-0.28-0.12-0.6-0.17-0.86-0.34c-0.67-0.43-1.41-0.56-2.18-0.52   c-0.23,0.01-0.39-0.07-0.56-0.23c-0.29-0.28-0.46-0.64-0.72-0.93c-0.49-0.56-0.49-0.55,0.03-1.1c0.02-0.02,0.04-0.04,0.06-0.06   c0.31-0.34,0.33-0.69,0.08-1.08c-0.28-0.43-0.69-0.69-1.15-0.9c-0.15-0.07-0.34-0.07-0.41-0.22c-0.04-0.1-0.01-0.17,0-0.24   c0.1-0.37,0.24-0.72,0.4-1.06c0.07-0.13,0.12-0.27,0.01-0.39c-0.22-0.24-0.41-0.5-0.71-0.65c-0.46-0.22-0.93-0.38-1.42-0.49   c-0.46-0.11-0.94-0.26-1.4-0.28c-1-0.05-1.98-0.29-2.98-0.3c-0.5-0.01-1.02,0.01-1.51,0.13c-0.68,0.16-1.35,0.39-2.06,0.35   c-0.14-0.01-0.28,0.01-0.42,0.05c-0.81,0.2-1.65,0.23-2.47,0.36c-0.7,0.11-1.32,0.37-1.74,0.98c-0.18,0.26-0.27,0.55-0.37,0.85   c-0.25,0.72-0.58,1.37-1.27,1.78c-0.11,0.06-0.21,0.16-0.4,0.09c-0.11-0.34-0.23-0.71-0.25-1.1c-0.02-0.38-0.19-0.6-0.53-0.71   c-0.38,0.17-0.8,0.19-1.18,0.34c-0.21,0.08-0.41,0.18-0.62,0.25c-0.67,0.21-1.36,0.37-1.97,0.74c-0.75,0.45-1.58,0.57-2.42,0.63   c-0.34,0.02-0.66,0.05-0.99,0.18c-0.48,0.19-0.99,0.32-1.49,0.45c-0.71,0.18-1.41,0.41-2.04,0.77c-0.55,0.31-1.11,0.6-1.69,0.86   c-1.08,0.49-2.15,0.98-3.16,1.6c-0.06,0.04-0.13,0.05-0.23,0.03c-0.27-0.18-0.4-0.48-0.52-0.78c-0.16-0.37-0.37-0.7-0.65-0.98   c-0.44-0.44-0.88-0.88-1.31-1.32c-0.41-0.42-0.89-0.73-1.38-1.04c-0.78-0.48-1.6-0.89-2.36-1.4c-0.43-0.29-0.87-0.6-1.38-0.72   c-0.5-0.13-0.96-0.32-1.42-0.53c-0.47-0.21-0.93-0.38-1.46-0.34c-0.2,0.02-0.39,0.01-0.59-0.03c-0.29-0.06-0.56,0.01-0.83,0.11   c-0.25,0.1-0.49,0.22-0.73,0.34c-0.42,0.21-0.75,0.47-0.86,0.97c-0.08,0.39-0.29,0.73-0.65,0.95c-0.11,0.07-0.22,0.15-0.35,0.06   c-0.13-0.08-0.12-0.22-0.1-0.34c0.02-0.11,0.06-0.22,0.1-0.32c0.05-0.12,0.08-0.24,0.09-0.37c0.08-0.7,0.25-1.38,0.5-2.04   c0.14-0.39-0.04-0.81-0.44-0.94c-0.39-0.12-0.79-0.23-1.2-0.22c-0.2,0-0.4,0.01-0.59-0.04c-0.65-0.17-1.32-0.15-1.98-0.16   c-0.25,0-0.51,0.03-0.76-0.05c-0.41-0.13-0.83-0.13-1.26-0.14c-0.3,0-0.6,0.01-0.89-0.05c-1.32-0.26-2.64-0.17-3.97-0.12   c-0.23,0.01-0.44,0.09-0.63,0.23c-0.58,0.43-1.16,0.85-1.62,1.41c-0.18,0.22-0.38,0.21-0.61,0.11c-0.47-0.19-0.95-0.36-1.4-0.59   c-0.41-0.21-0.73-0.1-1.03,0.19c-0.26,0.24-0.5,0.49-0.76,0.74c-0.35,0.33-0.65,0.7-0.91,1.11c-0.38,0.61-0.74,1.23-1.11,1.84   c-0.15,0.26-0.41,0.44-0.53,0.71c-0.19,0.46-0.51,0.84-0.78,1.25c-0.15,0.23-0.35,0.32-0.61,0.26c-0.21-0.04-0.42-0.02-0.63-0.02   c-0.83,0.01-1.66-0.05-2.43-0.39c-0.13-0.06-0.26-0.12-0.39-0.17c-0.32-0.11-0.57-0.01-0.67,0.32c-0.13,0.43-0.28,0.86-0.43,1.28   c-0.18,0.5-0.31,1.02-0.51,1.51c-0.37,0.94-0.69,1.9-0.92,2.88c-0.1,0.41-0.15,0.83-0.3,1.23c-0.24,0.64-0.31,1.33-0.46,2   c-0.11,0.46-0.24,0.92-0.35,1.38c-0.08,0.33-0.21,0.64-0.27,0.97c-0.05,0.25-0.13,0.46-0.29,0.64c-0.24,0.27-0.49,0.55-0.73,0.82   c-0.45,0.52-0.89,1.06-1.28,1.63c-0.31,0.45-0.59,0.92-0.91,1.37c-0.36,0.5-0.68,1.03-1.04,1.53c-0.41,0.55-0.7,1.18-0.98,1.81   c-0.21,0.47-0.16,0.7,0.28,0.95c0.38,0.22,0.76,0.44,1.19,0.52c0.18,0.04,0.37,0.07,0.44,0.34c-0.28,0.3-0.54,0.65-0.68,1.07   c-0.31,0.93-0.73,1.79-1.49,2.45c-0.08,0.07-0.14,0.18-0.21,0.26c-0.59,0.7-0.68,1.53-0.53,2.39c0.07,0.39,0,0.67-0.29,0.95   c-0.54,0.5-1.06,1.01-1.61,1.5c-0.49,0.44-0.9,0.94-0.83,1.68c0.03,0.29-0.16,0.47-0.35,0.65c-0.25,0.24-0.44,0.52-0.59,0.82   c-0.2,0.4-0.3,0.79,0.02,1.19c0.11,0.14,0.16,0.32,0.04,0.47c-0.39,0.53-0.58,1.15-0.87,1.73c-0.13,0.26-0.26,0.53-0.27,0.81   c0.13,0.15,0.28,0.1,0.41,0.13c0.31,0.06,0.39,0.17,0.29,0.47c-0.03,0.09-0.08,0.18-0.1,0.28c-0.18,0.76-0.33,1.53-0.66,2.25   c-0.17,0.37,0.01,0.75,0.4,0.81c0.38,0.06,0.73,0.22,1.12,0.22c1.5,0.01,2.99,0.09,4.49-0.06c0.72-0.07,1.43-0.14,2.15-0.13   c0.39,0.01,0.75-0.11,1.13-0.17c0.19-0.03,0.33-0.15,0.4-0.34c0.07-0.2,0.14-0.4,0.19-0.6c0.11-0.43,0.19-0.5,0.63-0.51   c0.39-0.02,0.8,0.01,1.18-0.06c0.85-0.16,1.71-0.18,2.57-0.18c1.44-0.01,2.87-0.14,4.3-0.3c0.31-0.03,0.62-0.04,0.93-0.03   c1.06,0.06,2.11,0.16,3.17,0.16c2.07,0,4.15-0.12,6.22,0.08c0.15,0.01,0.31,0,0.46-0.02c0.52-0.08,1.04-0.05,1.56-0.06   c0.28,0,0.52,0.08,0.76,0.22c0.6,0.36,1.16,0.81,1.82,1.07c0.04,0.02,0.08,0.04,0.1,0.07c0.4,0.43,0.95,0.52,1.48,0.66   c0.98,0.26,1.97,0.06,2.95,0.02c0.39-0.01,0.78-0.09,1.17-0.16c0.47-0.09,0.94-0.2,1.41-0.23c0.55-0.04,1.08-0.2,1.62-0.3   c0.34-0.06,0.7-0.09,1.03-0.19c0.63-0.18,1.28-0.31,1.89-0.56c0.18-0.08,0.36-0.16,0.56-0.2c0.85-0.15,1.69-0.05,2.53,0.06   c0.59,0.08,1.17,0.16,1.77,0.15c0.44,0,0.49,0.05,0.49,0.49c-0.02,0.76-0.02,1.52,0,2.29c0.01,0.55-0.02,1.1-0.17,1.63   c-0.26,0.95-0.63,1.85-1.21,2.68c-0.42,0.6-0.86,1.11-1.52,1.42c-0.5,0.24-1.03,0.25-1.5-0.01c-0.5-0.28-1-0.57-1.51-0.84   c-1.34-0.72-2.75-1.28-4.19-1.77c-2.06-0.7-3.95-1.27-6.16-1.14c-1.5,0.09-2.99,0.44-4.36,1.05c-1.44,0.63-2.45,1.58-3.38,2.85   c-0.56,0.77-0.86,1.68-1.24,2.53c-0.46,1.03-0.8,2.11-1.28,3.14c-0.16,0.35-0.18,0.71-0.09,1.08c0.09,0.4,0.44,0.57,0.82,0.4   c0.1-0.04,0.2-0.11,0.29-0.18c0.79-0.6,1.63-1.13,2.49-1.61c0.32-0.18,1.5-1.09,1.64-0.34c0.11,0.6,0.41,1.11,0.72,1.61   c0.25,0.41,0.53,0.8,0.92,1.09c0.53,0.4,1.04,0.82,1.58,1.21c0.43,0.32,0.85,0.65,1.37,0.83c0.19,0.07,0.37,0.13,0.54,0.01   c0.07-0.13,0.05-0.24,0.06-0.35c0.09-0.87-0.19-1.7-0.32-2.55c-0.09-0.61-0.12-1.21-0.06-1.81c0.16-1.71,0.79-3.29,2.07-4.48   c2.13-1.99,5.15-2.17,7.64-0.76c0.81,0.46,1.63,0.91,2.43,1.37c1.72,0.98,3.73,1.63,5.73,1.5c1.99-0.13,4.24-1.25,5.02-3.2   c0.35-0.9,0.61-1.83,0.76-2.79c0.14-0.92,0.2-3.7,0.38-4.12c0.15-0.1,0.26-0.06,0.37-0.05c0.41,0.03,0.8,0.16,1.2,0.2   c1.7,0.21,3.42,0.81,5.11,0.89c0.43,0.02,0.86,0.14,1.29,0.24c0.34,0.08,0.42,0.19,0.43,0.53c0.01,0.3,0.06,0.59,0.14,0.87   c0.13,0.43,0.22,0.5,0.66,0.56c0.47,0.06,0.94,0.17,1.4,0.28c0.42,0.11,0.85,0.24,1.27,0.29c1.26,0.15,2.52,0.34,3.78,0.51   c1.19,0.16,2.43,0.17,3.61,0.37c0.52,0.09,0.97-0.02,1.42-0.27c0.28-0.15,0.46-0.37,0.56-0.66c0.28-0.79,0.45-1.62,0.61-2.44   c0.13-0.66,0.39-1.29,0.5-1.95c0.06-0.35,0.34-0.53,0.66-0.53c0.45,0.01,0.59-0.11,0.72-0.54c0.22-0.78,0.45-1.56,0.64-2.36   c0.07-0.31,0.11-0.64,0.21-0.94c0.19-0.59,0.38-1.17,0.56-1.76c0.16-0.54,0.29-1.09,0.45-1.62c0.3-0.96,0.68-1.9,0.87-2.9   c0.1-0.5,0.21-0.99,0.28-1.49c0.04-0.35,0.06-0.69,0.18-1.03c0.08-0.24,0.19-0.48,0.22-0.72c0.1-0.7,0.35-1.36,0.46-2.05   c0.06-0.38,0.17-0.76,0.3-1.14c0.23-0.65,0.59-1.25,0.79-1.91c0.11-0.36,0.25-0.72,0.44-1.05c0.3-0.51,0.58-1.03,0.79-1.59   c0.27-0.74,0.7-1.41,1-2.14c0.24-0.58,0.42-1.19,0.73-1.75c0.27-0.49,0.47-1.02,0.62-1.57c0.14-0.51,0.31-1.02,0.55-1.5   c0.25-0.49,0.4-1.01,0.47-1.56c0.09-0.65,0.08-1.32,0.37-1.94c0.08-0.16,0.15-0.33,0.2-0.51c0.13-0.51,0.28-1.03,0.46-1.53   c0.08-0.23,0.41-1.98,0.45-2.22C96.46,27.77,96.2,27.55,95.87,27.36z M41.81,70.77c-1.87,0.65-3.5,1.97-4.46,3.7   c-0.96,1.73-1.2,3.85-0.59,5.73c0.03,0.09,0.05,0.21-0.02,0.27c-0.07,0.06-0.18,0.01-0.26-0.04c-1.35-0.86-2.36-2.25-2.76-3.79   c-0.1-0.39-0.17-0.8-0.39-1.13c-0.06-0.09-0.13-0.18-0.23-0.21c-0.11-0.04-0.23-0.01-0.34,0.02c-1.39,0.43-2.24,1.88-3.55,2.52   c-0.45-0.35,1.28-3.46,1.54-3.92c0.65-1.14,1.5-2.19,2.59-2.91c1.22-0.81,2.71-1.16,4.17-1.22c1.47-0.05,2.93,0.19,4.36,0.49   c0.09,0.02,0.19,0.05,0.23,0.12C42.2,70.56,41.99,70.71,41.81,70.77z M91.2,30.05c0.07-0.35,0.3-0.47,0.62-0.36   c0.28,0.1,0.35,0.26,0.28,0.56c-0.21,0.94-0.66,1.77-1.14,2.6c-0.27,0.46-0.42,0.98-0.63,1.47c-0.41,0.91-0.76,1.84-1.14,2.76   c-0.32,0.78-0.69,1.54-1.06,2.29c-0.18,0.36-0.26,0.77-0.42,1.14c-0.17,0.4-0.36,0.8-0.57,1.17c-0.29,0.5-0.47,1.05-0.68,1.59   c-0.17,0.46-0.35,0.92-0.53,1.37c-0.19,0.48-0.34,0.97-0.5,1.46c-0.05,0.16-0.09,0.31-0.32,0.24c-0.13-0.23-0.04-0.46,0.03-0.68   c0.32-0.94,0.75-1.86,0.91-2.84c0.13-0.79,0.48-1.46,0.83-2.14c0.16-0.31,0.31-0.63,0.43-0.96c0.16-0.41,0.29-0.82,0.43-1.24   c0.03-0.08,0.06-0.16,0.1-0.23c0.86-1.59,1.4-3.32,2.16-4.95c0.31-0.68,0.66-1.34,0.88-2.06C90.99,30.84,91.12,30.45,91.2,30.05z    M65.92,57.61c0.31,0.02,0.62,0.05,0.93,0.05c0.31,0,0.62,0.01,0.91,0.15c0.02,0.01,0.05,0.02,0.08,0.02   c0.57,0.01,1.11,0.2,1.67,0.23c0.39,0.02,0.79-0.01,1.17,0.15c0.07,0.03,0.17,0.03,0.25,0.02c1.04-0.09,2,0.22,2.96,0.55   c0.61,0.21,1.22,0.4,1.86,0.53c0.66,0.13,1.32,0.28,1.95,0.52c0.04,0.02,0.08,0.05,0.12,0.04c0.83-0.02,1.01,0.69,1.36,1.21   c0.01,0.02,0.01,0.05,0.01,0.08c0,0.01-0.01,0.03-0.03,0.1c-0.32-0.03-0.65,0.01-0.95-0.15c-0.07-0.04-0.16-0.07-0.24-0.07   c-0.48,0.02-0.9-0.2-1.33-0.35c-0.29-0.1-0.59-0.12-0.88-0.09c-0.55,0.05-1.1-0.08-1.65,0.01c-0.11,0.02-0.22-0.02-0.32-0.09   c-0.16-0.11-0.33-0.16-0.52-0.14c-0.15,0.01-0.28-0.04-0.4-0.12c-0.37-0.25-0.76-0.49-1.12-0.76c-0.23-0.17-0.46-0.28-0.74-0.28   c-0.72-0.01-1.43-0.15-2.14-0.24c-0.37-0.05-0.75-0.15-1.11-0.25c-0.35-0.1-0.69-0.14-1.04-0.14c-0.44,0-0.87-0.04-1.31-0.12   c-0.59-0.1-1.18-0.07-1.77-0.08c-0.2,0-0.43,0.07-0.58-0.13c0.14-0.56,0.45-0.8,0.96-0.81C64.66,57.46,65.29,57.57,65.92,57.61z    M64.04,56.97c0.04-0.44,0.43-0.86,0.84-0.82c1.52,0.14,3.05,0.05,4.57,0.1c0.27,0.01,0.53,0.05,0.8,0.11   c0.53,0.11,1.03,0.11,1.49-0.26c0.14-0.11,0.31-0.2,0.48-0.26c0.36-0.14,0.57-0.02,0.67,0.34c0,0.01,0.01,0.03,0.01,0.04   c-0.01,0.72,0.48,0.93,1.06,1.01c0.57,0.08,1.12,0.28,1.71,0.26c0.2-0.01,0.38,0.11,0.56,0.18c0.64,0.25,1.34,0.34,1.97,0.6   c0.22,0.09,0.44,0.18,0.66,0.27c0.12,0.05,0.21,0.14,0.22,0.32c-0.27,0.47-0.69,0.41-1.09,0.29c-1.01-0.29-2.02-0.59-3.06-0.76   c-0.23-0.04-0.46-0.15-0.67-0.24c-0.31-0.14-0.66-0.15-0.96-0.31c-0.06-0.03-0.13-0.05-0.2-0.05c-0.94-0.07-1.87-0.24-2.82-0.2   c-0.58,0.03-1.15-0.05-1.72-0.16c-1.12-0.21-2.25-0.34-3.39-0.26c-0.31,0.02-0.62,0.03-0.93-0.06   C64.16,57.08,64.08,57.05,64.04,56.97z M63.1,58.73c0.35,0.17,0.72,0.1,1.07,0.18c0.82,0.19,1.66,0.1,2.48,0.21   c0.49,0.06,1,0.1,1.48,0.31c0.27,0.12,0.58,0.12,0.87,0.13c0.67,0.04,1.33,0.2,2.01,0.2c0.22,0,0.39,0.14,0.55,0.29   c0.31,0.31,0.65,0.58,1.07,0.73c0.49,0.18,1,0.27,1.52,0.32c0.36,0.03,0.73,0.02,1.1,0c0.55-0.03,1.04,0.16,1.55,0.33   c0.38,0.13,0.75,0.32,1.17,0.32c0.3,0.01,0.56,0.18,0.85,0.24c0.12,0.02,0.22,0.12,0.21,0.35c-0.47,0.23-0.88,0.62-1.5,0.52   c-0.4-0.06-0.82,0.02-1.2-0.18c-0.05-0.02-0.11-0.04-0.16-0.03c-0.76,0.16-1.51-0.03-2.25-0.07c-1-0.06-2.01-0.27-2.86-0.89   c-0.37-0.27-0.83-0.36-1.25-0.47c-0.57-0.15-1.11-0.41-1.69-0.51c-0.56-0.1-1.1-0.33-1.68-0.31c-0.25,0.01-0.51-0.01-0.74-0.14   c-0.06-0.03-0.13-0.05-0.2-0.05c-0.89,0-1.76-0.27-2.65-0.21c-0.19,0.01-0.4,0.04-0.59-0.14c-0.04-0.41,0.17-0.77,0.38-1.1   C62.72,58.63,62.96,58.66,63.1,58.73z M62.29,60.78c0.21,0,0.42,0.03,0.63,0.06c0.59,0.07,1.18,0.09,1.77,0.09   c0.44,0,0.87,0.09,1.3,0.14c0.52,0.06,1.01,0.23,1.53,0.28c0.37,0.03,0.73,0.17,1.1,0.27c0.68,0.19,1.34,0.49,2.06,0.53   c0.15,0.01,0.26,0.09,0.38,0.17c0.39,0.28,0.84,0.47,1.29,0.63c0.6,0.22,1.24,0.24,1.87,0.25c0.41,0,0.82,0,1.23-0.01   c0.44-0.01,0.86-0.02,1.28,0.17c0.35,0.16,0.74,0.25,1.11,0.37c0.15,0.05,0.31,0.06,0.46,0.05c0.32-0.01,0.57,0.12,0.81,0.31   c0.09,0.07,0.19,0.15,0.19,0.27c0.02,0.4,0.2,0.73,0.43,1.04c0.04,0.06,0.06,0.13,0.03,0.22c-0.11,0.11-0.25,0.12-0.37,0.09   c-0.39-0.1-0.8-0.13-1.17-0.32c-0.73-0.38-1.52-0.6-2.34-0.68c-0.31-0.03-0.58-0.15-0.84-0.26c-0.76-0.31-1.57-0.42-2.37-0.57   c-0.25-0.05-0.49-0.14-0.73-0.21c-0.45-0.12-0.91-0.17-1.36-0.28c-0.16-0.04-0.33-0.08-0.5-0.09c-0.56-0.04-1.09-0.25-1.64-0.35   c-0.49-0.09-0.97-0.26-1.49-0.28c-0.84-0.03-1.67-0.19-2.48-0.44c-0.69-0.22-1.39-0.36-2.12-0.34c-0.49,0.01-0.59-0.2-0.56-0.67   C61.83,60.91,61.99,60.78,62.29,60.78z M79.88,59.22c0.49-0.84,0.77-1.78,1.16-2.66c0.42-0.95,0.74-1.94,1.2-2.88   c0.1-0.2,0.2-0.4,0.35-0.55c0.18,0.04,0.19,0.16,0.14,0.26c-0.14,0.28-0.2,0.58-0.31,0.87c-0.23,0.6-0.37,1.23-0.48,1.87   c-0.09,0.52-0.29,1.02-0.46,1.52c-0.2,0.6-0.34,1.21-0.52,1.81c-0.15,0.52-0.32,1.03-0.49,1.61c-0.31-0.23-0.39-0.52-0.53-0.75   C79.57,59.78,79.57,59.76,79.88,59.22z M80.04,62.95c0.58-0.21,0.87-0.64,1.02-1.24c0.14-0.6,0.38-1.17,0.53-1.77   c0.09-0.37,0.2-0.73,0.29-1.1c0.16-0.65,0.4-1.29,0.67-1.9c0.24-0.54,0.41-1.1,0.52-1.68c0.1-0.47,0.29-0.91,0.49-1.35   c0.26-0.56,0.43-1.15,0.54-1.76c0.1-0.52,0.31-1.02,0.47-1.53c0.15-0.47,0.34-0.92,0.32-1.42c-0.01-0.2,0.02-0.4,0.11-0.58   c0.07-0.13,0.08-0.27,0.08-0.41c0-0.11-0.01-0.26,0.05-0.33c0.47-0.48,0.42-1.17,0.69-1.72c0.28-0.57,0.62-1.12,0.82-1.71   c0.3-0.93,0.87-1.73,1.19-2.64c0.23-0.65,0.57-1.25,0.84-1.88c0.25-0.56,0.4-1.16,0.65-1.72c0.46-1.02,0.89-2.06,1.35-3.08   c0.25-0.55,0.57-1.06,0.79-1.63c0.01-0.03,0.41-0.76,0.44-0.78c0.13,0.05-0.21,0.88-0.25,0.97c-0.25,0.61-0.44,1.24-0.65,1.87   c-0.45,1.39-1.09,2.72-1.46,4.13c-0.15,0.55-0.29,1.11-0.44,1.67c-0.1,0.38-0.26,0.72-0.49,1.02c-0.35,0.46-0.57,0.98-0.73,1.51   c-0.18,0.57-0.41,1.11-0.67,1.64c-0.23,0.48-0.39,0.99-0.55,1.5c-0.22,0.69-0.5,1.34-0.73,2.02c-0.19,0.57-0.38,1.15-0.56,1.72   c-0.18,0.59-0.39,1.17-0.53,1.77c-0.09,0.41-0.21,0.82-0.32,1.22c-0.14,0.52-0.17,1.1-0.66,1.46c-0.07,0.05-0.09,0.14-0.1,0.23   c-0.18,0.88-0.46,1.73-0.77,2.58c-0.13,0.36-0.21,0.75-0.29,1.13c-0.19,0.93-0.3,1.88-0.75,2.75c-0.21,0.4-0.32,0.87-0.42,1.32   c-0.16,0.69-0.48,1.31-0.68,1.99c-0.04,0.13-0.14,0.21-0.35,0.19c-0.18-0.53-0.59-0.96-0.55-1.57c0.01-0.14-0.1-0.29-0.14-0.44   C79.78,63.18,79.82,63.03,80.04,62.95z M84.1,43.73c0.05-0.42,0.5-0.62,1.11-0.47c-0.24,0.9-0.47,1.78-0.7,2.67   c-0.28-0.02-0.4-0.17-0.41-0.38C84.04,44.93,84.03,44.33,84.1,43.73z M90.33,25.88c0.53,0.16,0.67,0.39,0.6,0.92   c-0.12,0.94-0.41,1.83-0.73,2.72c-0.18,0.5-0.27,1.03-0.45,1.54c-0.25,0.72-0.68,1.36-0.97,2.07c-0.37,0.93-0.93,1.78-1.23,2.73   c-0.26,0.82-0.72,1.56-1.03,2.35c-0.09,0.24-0.13,0.49-0.2,0.73c-0.11,0.38-0.29,0.73-0.48,1.07c-0.29,0.49-0.54,0.99-0.77,1.51   c-0.15,0.33-0.4,0.49-0.73,0.58c-0.49,0.13-0.89,0.4-1.08,0.87c-0.12,0.31-0.16,0.66-0.19,0.99c-0.04,0.41-0.04,0.82-0.02,1.23   c0.04,0.56,0.17,1.08,0.56,1.52c0.17,0.19,0.18,0.38,0.06,0.62c-0.31,0.63-0.46,1.32-0.72,1.97c-0.2,0.51-0.49,0.99-0.68,1.5   c-0.38,1.05-0.99,2-1.38,3.03c-0.43,1.13-0.94,2.23-1.18,3.43c-0.07,0.35-0.27,0.45-0.63,0.32c-0.4-0.14-0.78-0.31-1.18-0.47   c-0.63-0.25-1.27-0.47-1.91-0.67c-0.09-0.03-0.19-0.06-0.29-0.05c-0.47,0.03-0.92-0.13-1.37-0.2c-0.22-0.04-0.36-0.13-0.42-0.35   c-0.07-0.25-0.19-0.47-0.36-0.66c-0.42-0.47-0.98-0.54-1.6-0.38c-0.3,0.08-0.62,0.19-0.86,0.43c-0.12,0.11-0.27,0.14-0.43,0.14   c-0.73-0.01-1.47-0.01-2.2-0.01c-0.28,0-0.56-0.02-0.83-0.14c-0.06-0.03-0.14-0.05-0.2-0.05c-0.67,0.06-1.22-0.31-1.81-0.52   c-0.94-0.34-1.82-0.83-2.79-1.06c-0.48-0.11-0.94-0.26-1.44-0.3c-0.63-0.05-1.25-0.17-1.88-0.28c-0.28-0.05-0.56-0.09-0.84-0.07   c-1.01,0.06-2.03,0.11-3.04,0.19c-0.36,0.03-0.72,0.16-1.06,0.26c-0.53,0.16-1.08,0.21-1.62,0.28c-0.96,0.12-1.84,0.48-2.75,0.79   c-0.65,0.22-1.31,0.42-1.97,0.63c-0.08,0.03-0.89,0.46-0.96,0.33c0.06-0.17,0.93-0.67,1.06-0.75c0.85-0.5,1.72-0.97,2.68-1.23   c0.66-0.17,1.33-0.36,2-0.49c0.48-0.1,0.97-0.16,1.45-0.29c0.59-0.16,1.21-0.09,1.81-0.15c1.35-0.12,2.71-0.11,4.06-0.18   c0.61-0.03,1.22,0.02,1.72,0.45c0.57,0.48,1.23,0.48,1.89,0.33c0.45-0.1,0.92-0.13,1.36-0.3c0.22-0.08,0.46-0.13,0.67-0.24   c0.42-0.22,0.88-0.31,1.33-0.38c0.44-0.07,0.87-0.06,1.26,0.21c0.19,0.13,0.4,0.19,0.63,0.23c0.24,0.04,0.47,0.11,0.68,0.24   C70,52.96,70.15,52.97,70.3,53c0.48,0.11,0.97,0.15,1.43,0.32c0.28,0.1,0.58,0.13,0.86,0.2c0.55,0.14,1.02,0.46,1.57,0.62   c0.34,0.1,0.64,0.28,0.95,0.45c0.71,0.38,1.47,0.55,2.27,0.45c0.23-0.03,0.37-0.14,0.41-0.36c0.05-0.3,0.12-0.61,0.13-0.92   c0.02-0.93,0.34-1.76,0.77-2.56c0.14-0.26,0.26-0.53,0.3-0.83c0.04-0.27,0.21-0.49,0.36-0.71c0.35-0.53,0.71-1.05,1.07-1.57   c0.29-0.42,0.43-0.85,0.33-1.39c-0.09-0.49,0.06-1,0.16-1.5c0.21-1.08,0.77-2.02,1.21-3c0.16-0.36,0.33-0.72,0.48-1.08   c0.12-0.31,0.16-0.65,0.23-0.97c0.06-0.27,0.16-0.54,0.19-0.81c0.08-0.78,0.49-1.43,0.78-2.12c0.39-0.91,0.97-1.72,1.38-2.61   c0.41-0.89,0.97-1.68,1.45-2.53c0.53-0.95,1.08-1.88,1.65-2.8c0.18-0.3,0.32-0.63,0.44-0.96c0.14-0.39,0.35-0.75,0.59-1.07   c0.32-0.41,0.62-0.84,0.9-1.28C90.25,25.92,90.3,25.9,90.33,25.88z M53.3,57.06c0.32,0.05,0.64-0.1,0.97-0.08   c0.33,0.02,0.66,0.09,1.04,0.14c-0.06,0.33-0.18,0.58-0.45,0.74c-0.11,0.06-0.23,0.1-0.36,0.11c-1.07,0.04-2.12,0.33-3.2,0.24   c-0.37-0.03-0.73-0.01-1.08,0.13c-0.17,0.07-0.36,0.08-0.54,0.07c-0.28-0.01-0.56,0-0.83,0.14c-0.07,0.04-0.16,0.05-0.25,0.05   c-0.47,0.01-0.9,0.19-1.33,0.34c-0.12,0.04-0.24,0.06-0.37,0.08c-0.1,0.01-0.2,0.03-0.24,0.17c0.11,0.17,0.26,0.12,0.39,0.04   c0.18-0.11,0.37-0.13,0.57-0.13c0.13,0,0.25-0.01,0.37-0.08c0.05-0.03,0.1-0.07,0.15-0.07c0.58,0.02,1.13-0.24,1.71-0.25   c0.82-0.01,1.64-0.01,2.46-0.01c0.51,0,1.01-0.01,1.51-0.14c0.25-0.07,0.53-0.12,0.78,0.04c0.09,0.25-0.06,0.47-0.11,0.7   c-0.07,0.3-0.15,0.6-0.16,0.91c-0.01,0.35-0.11,0.45-0.47,0.45c-0.76,0-1.52,0-2.29-0.01c-1.19-0.01-2.37-0.02-3.55,0.08   c-0.88,0.07-1.76,0.19-2.63,0.5c-0.79-0.99-1.26-2.15-1.95-3.16c0.12-0.21,0.29-0.16,0.44-0.16c0.83-0.02,1.67-0.02,2.5-0.06   c0.48-0.02,0.94-0.16,1.4-0.28c0.99-0.26,1.94-0.69,2.95-0.84c0.57-0.08,1.13-0.27,1.71-0.26c0.16,0,0.31-0.03,0.45-0.1   c0.14-0.07,0.29-0.11,0.45-0.11c0.6,0.01,1.16-0.16,1.73-0.34c0.36-0.11,0.75-0.11,1.11-0.24c0.05-0.02,0.11,0.02,0.15,0.08   c0.06,0.1,0.01,0.18-0.05,0.26c-0.06,0.08-0.13,0.15-0.18,0.24c-0.25,0.42-0.6,0.59-1.09,0.52c-0.32-0.04-0.65,0.03-0.97-0.01   c-0.53-0.07-0.98,0.22-1.48,0.27c-0.08,0.01-0.18,0.07-0.24,0.21C52.65,57.15,52.96,57.01,53.3,57.06z M41.5,55.57   c0.05,0.32,0.01,0.65,0,0.97c-0.01,0.31,0.04,0.62-0.03,0.95c-0.34,0.15-0.67,0.05-0.99,0.08c-0.31,0.02-0.56,0.29-0.94,0.23   c0.38-1.24,1.27-2.12,2.02-3.1C41.72,55.01,41.45,55.27,41.5,55.57z M40.4,59.02c0.48-0.18,0.93-0.18,1.38,0.07   c0.88,0.5,1.47,1.25,1.89,2.15c0.01,0.02,0,0.05-0.01,0.09c-0.1,0.13-0.22,0.12-0.33,0.12c-0.47,0-0.92,0.1-1.39,0.14   c-0.88,0.09-1.77,0.08-2.66,0.01c-0.23-0.02-0.46-0.11-0.69-0.18c-0.18-0.06-0.26-0.2-0.17-0.36C38.89,60.2,39.41,59.39,40.4,59.02   z M54.47,55.32c-0.25,0.08-0.52,0.11-0.79,0.13c-0.77,0.07-1.52,0.28-2.3,0.29c-0.57,0.01-1.11,0.19-1.65,0.32   c-0.87,0.21-1.71,0.54-2.58,0.76c-0.52,0.14-1.82,0.35-1.87,0.16c0.18-0.18,0.45-0.21,0.66-0.29c1.06-0.36,2.1-0.8,3.18-1.11   c0.81-0.23,1.62-0.45,2.41-0.72c0.79-0.26,1.62-0.35,2.44-0.44c0.58-0.06,1.13-0.22,1.69-0.34c0.58-0.12,1.15-0.08,1.72-0.09   c0.07,0,0.13,0.04,0.17,0.11c-0.14,0.52-0.49,0.77-0.98,0.84C55.87,55.07,55.15,55.09,54.47,55.32z M47.68,55.18l0.03,0l-0.01,0.03   L47.68,55.18z M90.15,23.79c0.04,0.15,0,0.24-0.06,0.32c-0.44,0.57-0.71,1.24-1.04,1.88c-0.1,0.2-0.21,0.39-0.35,0.57   c-0.37,0.48-0.66,1.01-0.87,1.58c-0.11,0.3-0.26,0.6-0.44,0.86c-0.6,0.87-1.09,1.8-1.58,2.74c-0.04,0.09-0.11,0.16-0.18,0.23   c-0.04,0.05-0.54,1.23-0.66,1.2c0.01-0.19,0.55-1.48,0.61-1.66c0.27-0.89,0.7-1.72,1.15-2.53c0.34-0.6,0.47-1.3,0.82-1.9   c0.35-0.6,0.48-1.29,0.85-1.88c0.27-0.43,0.51-0.87,0.62-1.37c0.04-0.16,0.13-0.31,0.29-0.46C89.64,23.49,89.94,23.59,90.15,23.79z    M57.11,28.54c0.25-0.34,0.56-0.62,0.94-0.83c1.37-0.78,2.8-1.46,4.25-2.09c0.64-0.28,1.29-0.56,1.95-0.81   c0.48-0.18,0.99-0.28,1.48-0.44c0.82-0.27,1.69-0.24,2.52-0.44c0.29-0.07,0.57-0.16,0.85-0.24c0.85-0.22,1.66-0.54,2.4-1.02   c0.08-0.05,0.17-0.11,0.26-0.14c0.26-0.09,0.4-0.02,0.44,0.27c0.03,0.18,0.1,0.32,0.23,0.43c0.1,0.09,0.15,0.2,0.21,0.31   c0.27,0.58,0.67,0.72,1.29,0.51c0.7-0.24,1.19-0.73,1.63-1.29c0.36-0.45,0.45-0.99,0.59-1.52c0.06-0.24,0.16-0.43,0.36-0.55   c0.36-0.21,0.73-0.43,1.17-0.43c0.07,0,0.16,0.01,0.21-0.03c0.32-0.24,0.7-0.18,1.06-0.18c0.24,0,0.48-0.02,0.71-0.11   c0.16-0.06,0.33-0.09,0.5-0.08c1.82,0.06,1.56-0.4,3.38-0.48c0.65-0.03,3.36,0.27,4.01,0.4c0.53,0.11,1.05,0.19,1.53,0.45   c0.44,0.23,0.42,0.22,0.25,0.69c-0.24,0.69-0.51,1.38-0.87,2.01c-0.45,0.78-0.67,1.63-1.01,2.45c-0.04,0.09-0.07,0.18-0.13,0.27   c-0.39,0.59-0.75,1.19-0.97,1.87c-0.18,0.55-0.46,1.05-0.73,1.56c-0.38,0.73-0.65,1.5-0.99,2.24c-0.18,0.38-0.36,0.76-0.61,1.11   c-0.34,0.49-0.52,1.07-0.61,1.65c-0.1,0.63-0.35,1.21-0.52,1.82c-0.2,0.73-0.41,1.46-0.54,2.2c-0.3,1.64-0.66,3.25-1.45,4.74   c-0.38,0.72-0.59,1.5-0.78,2.3c-0.15,0.66-0.15,1.31-0.16,1.97c0,0.21-0.08,0.37-0.19,0.54c-0.38,0.6-0.87,1.11-1.28,1.68   c-0.68,0.95-1.28,1.96-1.54,3.12c-0.1,0.44-0.07,0.9-0.07,1.35c0,0.1,0.02,0.2,0.01,0.3c-0.03,0.3-0.22,0.4-0.47,0.24   c-0.44-0.29-0.92-0.48-1.38-0.74c-0.48-0.27-1.02-0.47-1.56-0.62c-0.52-0.15-1.02-0.33-1.51-0.53c-0.45-0.18-0.94-0.15-1.39-0.35   c-0.63-0.28-1.32-0.37-1.95-0.66c-0.56-0.26-1.13-0.15-1.7-0.08c-0.72,0.09-1.36,0.46-2.05,0.63c-0.53,0.13-1.09,0.16-1.62,0.3   c-0.17,0.04-0.33-0.04-0.47-0.14c-0.21-0.15-0.41-0.3-0.64-0.41c-0.68-0.34-1.4-0.38-2.14-0.3c-0.98,0.11-1.97,0.11-2.96,0.16   c-0.85,0.04-1.69,0.03-2.54,0.11c-0.58,0.05-1.16,0.22-1.74,0.32c-0.62,0.11-1.23,0.29-1.84,0.46c-0.95,0.25-1.83,0.67-2.65,1.19   c-1.57,0.99-3.18,1.93-4.82,2.8c-0.26,0.14-0.55,0.1-0.83,0.08c-0.19-0.02-0.25-0.16-0.23-0.41c0.05-0.23,0.17-0.52,0.28-0.8   c0.13-0.33,0.22-0.67,0.31-1c0.19-0.65,0.44-1.27,0.71-1.89c0.52-1.21,1.04-2.43,1.58-3.63c0.66-1.47,1.25-2.98,2.06-4.39   c0.46-0.8,0.91-1.62,1.46-2.38c0.41-0.57,0.69-1.23,1.05-1.83c0.57-0.95,1.13-1.91,1.77-2.83c0.63-0.92,1.17-1.9,1.81-2.81   c0.57-0.83,1.09-1.68,1.53-2.58c0.38-0.77,0.98-1.42,1.36-2.19C56.52,29.36,56.8,28.95,57.11,28.54z M22.37,26.88   c0.3-0.62,0.62-1.22,1-1.8c0.63-0.95,1.17-1.96,1.77-2.93c0.4-0.64,0.74-1.34,1.33-1.84c0.26-0.22,0.52-0.43,0.8-0.67   c0.28,0.14,0.47,0.33,0.72,0.43c0.24,0.1,0.52,0.13,0.7,0.32c0.04,0.17-0.06,0.26-0.14,0.36c-0.47,0.56-0.94,1.12-1.41,1.69   c-0.12,0.14-0.26,0.28-0.32,0.44c-0.26,0.62-0.77,0.99-1.32,1.32c-0.23,0.14-0.44,0.3-0.64,0.48c-0.38,0.35-0.76,0.71-1.16,1.05   c-0.39,0.33-0.64,0.78-0.94,1.19c-0.09,0.13-0.81,1.04-0.81,1.04S22.31,27.01,22.37,26.88z M15.61,34.85   c0.28-0.56,0.41-1.18,0.5-1.77c0.11-0.68,0.43-1.3,0.53-1.99c0.07-0.5,0.25-1,0.44-1.49c0.23-0.6,0.47-1.2,0.68-1.81   c0.18-0.52,0.28-1.08,0.43-1.62c0.08-0.29,0.22-0.54,0.32-0.82c0.33-0.05,0.53,0.15,0.78,0.2c0.57,0.11,1.14,0.18,1.72,0.19   c0.21,0.01,0.42-0.01,0.63,0.01c0.32,0.02,0.4,0.16,0.25,0.45c-0.32,0.6-0.49,1.25-0.73,1.88c-0.08,0.22-0.21,0.43-0.32,0.64   c-0.06,0.11-0.15,0.21-0.19,0.33c-0.37,0.94-1.1,1.58-1.81,2.25c-0.3,0.28-0.57,0.58-0.88,0.85c-0.42,0.37-0.57,0.85-0.65,1.37   c-0.07,0.43-0.18,0.85-0.29,1.28c-0.07,0.28-0.25,0.44-0.55,0.42c-0.27-0.02-0.52,0.09-0.77,0.15   C15.52,35.21,15.53,35.01,15.61,34.85z M10.55,44.08c-0.25-0.14-0.28-0.27-0.14-0.52c0.17-0.29,0.35-0.58,0.55-0.85   c0.56-0.75,1.08-1.52,1.57-2.31c0.22-0.35,0.47-0.67,0.73-0.99c0.33-0.4,0.63-0.83,0.92-1.26c0.08-0.12,0.17-0.23,0.26-0.33   c0.18-0.2,0.4-0.37,0.54-0.59c0.35-0.53,0.8-0.81,1.45-0.7c0.14,0.03,0.27-0.05,0.39-0.13c0.61-0.39,0.97-0.95,1.17-1.64   c0.17-0.59,0.34-1.19,0.42-1.8c0.02-0.15,0.11-0.25,0.21-0.36c0.31-0.33,0.65-0.63,1.01-0.9c0.49-0.36,0.91-0.79,1.39-1.16   c0.69-0.53,1.1-1.31,1.6-2.01c0.55-0.79,1.15-1.52,1.89-2.16c1.51-1.31,2.92-2.75,4.29-4.2c0.18-0.19,0.33-0.42,0.49-0.64   c0.7-0.96,1.58-1.76,2.33-2.68c0.22-0.27,0.51-0.35,0.86-0.37c0.85-0.06,1.7,0.03,2.52,0.17c1.55,0.26,3.1,0.12,4.64,0.21   c0.77,0.04,1.53,0.21,2.36,0.22c0,0.43-0.14,0.74-0.22,1.06c-0.2,0.79-0.41,1.58-0.3,2.41c0.03,0.23-0.01,0.44-0.11,0.65   c-0.17,0.36,0.01,0.58,0.41,0.52c0.07-0.01,0.14-0.03,0.2-0.07c0.42-0.23,0.83-0.48,1.25-0.7c0.49-0.26,0.81-0.66,0.97-1.17   c0.12-0.36,0.38-0.56,0.7-0.67c0.42-0.15,0.87-0.21,1.28-0.41c0.1-0.05,0.2-0.01,0.28,0.05c0.68,0.5,1.48,0.73,2.26,1.02   c0.55,0.2,1.04,0.49,1.54,0.79c0.79,0.47,1.59,0.91,2.39,1.36c0.37,0.21,0.71,0.46,1.02,0.75c0.54,0.52,1.07,1.05,1.6,1.57   c0.12,0.12,0.22,0.26,0.29,0.41c0.13,0.28,0.26,0.56,0.46,0.8c0.19,0.23,0.16,0.46,0,0.7c-0.42,0.63-0.82,1.28-1.26,1.9   c-0.41,0.59-0.77,1.21-1.04,1.88c-0.17,0.42-0.37,0.82-0.64,1.18c-0.46,0.61-0.83,1.27-1.2,1.94c-0.3,0.53-0.68,1-0.98,1.53   c-0.42,0.73-0.85,1.46-1.28,2.19c-0.18,0.3-0.38,0.59-0.58,0.88c-0.2,0.31-0.35,0.64-0.48,0.98c-0.1,0.25-0.23,0.48-0.39,0.7   c-0.5,0.7-0.91,1.45-1.36,2.19c-0.87,1.43-1.6,2.95-2.42,4.4c-0.18,0.32-0.33,0.66-0.55,0.95c-0.19,0.25-0.21,0.57-0.33,0.86   c-0.44,1.05-1,2.01-1.71,2.9c-0.91,1.13-1.83,2.26-2.6,3.49c-0.08,0.13-0.18,0.25-0.28,0.37c-0.28,0.37-0.59,0.55-1.09,0.34   c-0.41-0.17-0.88-0.14-1.32-0.27c-0.7-0.2-1.38-0.4-1.93-0.88c-0.8-0.7-1.74-1.14-2.69-1.57c-0.67-0.3-1.35-0.53-2.08-0.66   c-0.59-0.1-1.14-0.4-1.66-0.72c-0.95-0.58-1.87-1.2-2.76-1.88c-0.63-0.49-1.36-0.86-2.1-1.17c-0.19-0.08-0.41-0.1-0.61-0.15   c-0.27-0.07-0.43-0.2-0.49-0.5c-0.06-0.33-0.21-0.64-0.35-0.95c-0.21-0.46-0.33-0.96-0.64-1.37c-0.37-0.49-0.81-0.82-1.46-0.75   c-0.25,0.02-0.51,0-0.76,0.01c-0.39,0.01-0.64-0.19-0.79-0.53c-0.17-0.39-0.38-0.76-0.69-1.06c-0.22-0.21-0.48-0.34-0.8-0.3   c-0.69,0.1-1.38,0.09-2.07,0.09c-0.53,0-1.07,0.06-1.61-0.01c-0.11-0.01-0.23,0-0.33,0.04c-0.4,0.18-0.8,0.19-1.24,0.15   C11.14,44.37,10.85,44.24,10.55,44.08z M26.73,52.76c0,0-1.52-0.21-1.77-0.32c-0.93-0.41-1.85-0.82-2.73-1.32   c-0.3-0.17-0.61-0.35-0.95-0.45c-0.3-0.09-0.55-0.27-0.77-0.5c-0.36-0.36-0.72-0.72-1.08-1.08c-0.49-0.48-1.13-0.73-1.73-1.04   c-0.69-0.36-1.4-0.64-2.15-0.85c-0.54-0.15-1.04-0.43-1.57-0.63c-0.41-0.15-0.82-0.18-1.24-0.25c-0.12-0.02-0.26,0.01-0.42-0.14   c0.09-0.39,0.33-0.7,0.55-1.01c0.07-0.11,0.23-0.11,0.35-0.11c1.13,0,2.26,0.03,3.39-0.02c0.22-0.01,0.37,0.09,0.5,0.27   c0.16,0.23,0.29,0.49,0.39,0.75c0.23,0.57,0.69,0.8,1.26,0.84c0.29,0.02,0.59,0.04,0.89,0.03c0.55-0.03,0.89,0.29,1.08,0.73   c0.28,0.64,0.69,1.23,0.85,1.93c0.06,0.27,0.31,0.43,0.55,0.55c0.53,0.27,1.08,0.48,1.59,0.79c0.68,0.41,1.32,0.86,1.99,1.28   C25.76,52.23,26.73,52.76,26.73,52.76z M9.69,50.08c0-0.2,0.14-0.34,0.27-0.46c0.55-0.53,0.94-1.16,1.15-1.89   c0.07-0.24,0.21-0.41,0.47-0.41c0.72,0,1.44-0.09,2.13,0.2c0.39,0.16,0.78,0.33,1.17,0.47c0.33,0.12,0.68,0.17,1.02,0.28   c0.5,0.16,0.96,0.41,1.45,0.57c0.16,0.05,0.32,0.11,0.47,0.17c0.59,0.23,0.99,0.69,1.35,1.17c0.45,0.6,1.03,1.03,1.68,1.39   c0.98,0.54,2.04,0.89,3.02,1.42c0.52,0.28,1.1,0.37,1.67,0.43c0.59,0.06,1.16,0.23,1.74,0.31c0.5,0.07,1,0.18,1.49,0.3   c0.78,0.19,1.58,0.27,2.31,0.64c0.31,0.15,1.83,0.73,2.11,0.92c0.46,0.31,0.71,0.52,1.14,0.87c0.1,0.09-0.13,0.04-0.81,0.04   c-0.56,0-1.12,0.12-1.68-0.01c-0.67-0.16-1.31-0.42-1.95-0.67c-0.27-0.11-0.57-0.15-0.86-0.22c-0.82-0.19-1.65-0.36-2.45-0.61   c-0.22-0.07-0.45-0.06-0.67-0.01c-0.29,0.08-0.57,0.02-0.83-0.08c-0.61-0.24-1.25-0.41-1.88-0.6c-0.68-0.2-1.37-0.31-2.04-0.51   c-0.01,0-0.03-0.01-0.04-0.01c-0.68-0.02-1.35-0.27-2.05-0.13c-0.53,0.1-1.07,0.08-1.61,0.08c-0.25,0-0.43-0.08-0.51-0.34   c-0.23-0.74-0.71-1.3-1.29-1.79c-0.18-0.15-0.34-0.19-0.54-0.11c-0.34,0.13-0.69,0.27-0.94,0.55c-0.3,0.34-0.67,0.61-0.96,0.95   c-0.26,0.29-0.56,0.36-0.91,0.26c-0.29-0.08-0.57-0.16-0.86,0.02c-0.05,0.03-0.15,0.04-0.2,0.02c-0.42-0.17-1.51-0.1-1.91-0.36   c-0.26-0.17,0.28-0.31,0.38-0.59c0.11-0.32,0.09-0.62,0-0.95C9.6,50.97,9.68,50.52,9.69,50.08z M12.32,63.96   c-0.05,0.07-2.87,0.4-3.02,0.42c-1.79,0.13-2.04-0.14-3.84-0.1c-0.13,0-0.26,0.01-0.38-0.01c-0.21-0.03-0.3-0.17-0.21-0.36   c0.27-0.59,0.43-1.22,0.65-1.82c0.06-0.15,0.02-0.31,0.1-0.46c0.13-0.13,0.28-0.12,0.42-0.12c1.76,0.07,3.52,0.02,5.28,0.01   c0.41,0,0.67,0.09,0.81,0.5c0.1,0.3,0.32,0.56,0.39,0.88C12.61,63.28,12.56,63.63,12.32,63.96z M7.31,60.83   c-0.58-0.01-1.14-0.18-1.73-0.15c-0.31,0.01-0.44-0.22-0.34-0.49c0.12-0.3,0.24-0.6,0.37-0.9c0.11-0.26,0.3-0.42,0.59-0.39   c0.88,0.06,1.7-0.22,2.52-0.47c0.31-0.09,0.6-0.09,0.91-0.03c0.52,0.1,1,0.26,1.48,0.47c0.35,0.15,0.72,0.24,1.11,0.22   c0.35-0.01,0.71,0.01,1.06,0.01c0.21,0,0.42-0.01,0.61,0.13c0.11,0.08,0.24,0.05,0.37,0.05c0.99,0,1.98,0,2.96,0   c0.38,0,0.76-0.01,1.13-0.12c0.23-0.07,0.47-0.06,0.71-0.06c0.58,0,1.16,0,1.74-0.01c0.35,0,0.7-0.03,1.04-0.13   c0.45-0.13,0.93-0.08,1.39-0.09c1.48,0,2.96,0.02,4.45,0.03c0.25,0,0.5,0.03,0.75,0.11c0.33,0.11,0.67,0.06,1.01,0.07   c0.48,0.02,0.95,0.01,1.42,0.14c0.44,0.13,0.92,0.08,1.39,0.01c0.23-0.03,0.46-0.08,0.73-0.12c-0.16-0.18-0.32-0.16-0.46-0.16   c-0.85,0-1.69-0.12-2.53-0.22c-0.63-0.08-1.26-0.13-1.89-0.14c-0.13,0-0.27,0.01-0.38-0.04c-0.43-0.2-0.88-0.15-1.33-0.15   c-1.67,0.02-3.33-0.06-5,0.02c-1.42,0.07-2.84,0.15-4.27,0.17c-0.41,0.01-0.82-0.02-1.23,0c-0.52,0.03-1-0.12-1.48-0.27   c-0.2-0.06-0.4-0.12-0.62-0.12c-0.69-0.02-1.36-0.22-2.06-0.26c-0.24-0.01-0.46-0.14-0.68-0.22c-0.37-0.14-0.74-0.18-1.12-0.22   c-0.53-0.06-1.07-0.02-1.56,0.24c-0.57,0.31-1.21,0.33-1.83,0.45c-0.12,0.02-0.25-0.02-0.38-0.04c-0.07-0.01-0.13-0.05-0.18-0.13   c-0.06-0.14,0.02-0.26,0.09-0.38c0.21-0.35,0.43-0.7,0.63-1.05c0.18-0.31,0.45-0.47,0.78-0.36c0.86,0.26,1.74,0.08,2.61,0.19   c1.06,0.13,2.13,0.23,3.2,0.24c0.68,0.01,1.35-0.03,2.02-0.1c0.58-0.06,1.2-0.15,1.74,0.29c0.34,0.27,0.74,0.36,1.23,0.24   c0.49-0.12,1.04-0.12,1.55,0.06c0.26,0.09,0.53,0.09,0.8,0.09c0.63,0.01,1.27-0.01,1.89,0.18c0.23,0.07,0.5,0.04,0.76,0.04   c0.86,0,1.71,0,2.63,0c-0.46-0.23-0.87-0.32-1.32-0.3c-0.32,0.01-0.65-0.01-0.97-0.01c-0.22,0-0.42-0.02-0.62-0.11   c-0.06-0.03-0.14-0.06-0.2-0.06c-0.84,0.05-1.64-0.27-2.48-0.25c-0.13,0-0.26,0-0.38-0.04c-0.38-0.15-0.77-0.14-1.17-0.14   c-0.24,0-0.47-0.02-0.68-0.18c-0.2-0.15-0.44-0.25-0.67-0.37c-0.37-0.19-0.76-0.26-1.18-0.26c-0.88-0.01-1.74,0.1-2.61,0.23   c-0.21,0.03-0.42,0.02-0.63,0c-0.41-0.03-0.82-0.06-1.23-0.03c-0.76,0.06-1.47-0.23-2.22-0.21c-0.65,0.01-1.3,0-1.95-0.01   c-0.12,0-0.22,0.03-0.33,0.07c-0.15,0.05-0.28,0-0.37-0.13c-0.1-0.13-0.08-0.27,0.01-0.39c0.11-0.14,0.24-0.28,0.38-0.4   c0.29-0.25,0.59-0.49,0.85-0.76c0.2-0.21,0.43-0.25,0.73-0.22c0.74,0.07,1.47,0.3,2.22,0.29c0.25,0,0.51,0,0.75-0.11   c0.2-0.09,0.41-0.08,0.63-0.07c0.34,0.01,0.68,0.02,1.02,0.02c0.22,0,0.39-0.07,0.54-0.27c0.34-0.45,0.84-0.74,1.21-1.1   c0.17-0.01,0.26,0.04,0.31,0.13c0.2,0.34,0.53,0.6,0.58,1.05c0.05,0.45,0.47,0.71,1.04,0.75c0.28,0.02,0.56,0.01,0.85,0.01   c0.49,0,0.99,0,1.48-0.02c0.96-0.04,1.87,0.17,2.79,0.38c0.37,0.08,0.74,0.17,1.11,0.26c0.47,0.12,0.92,0.35,1.38,0.51   c0.37,0.13,0.75,0.27,1.15,0.14c0.12-0.04,0.25-0.03,0.38,0.01c1.08,0.31,2.19,0.53,3.29,0.76c0.38,0.08,0.75,0.24,1.13,0.32   c0.48,0.11,0.93,0.3,1.44,0.27c0.99-0.06,1.98,0.01,2.96,0.05c0.94,0.04,1.88,0.19,2.79,0.43c0.1,0.03,0.19,0.06,0.24,0.16   c0.06,0.15-0.04,0.26-0.1,0.39c-0.22,0.42-0.44,0.85-0.49,1.34c-0.04,0.41-0.38,0.68-0.56,1.03c-0.06,0.11-0.18,0.1-0.3,0.08   c-0.73-0.13-1.46-0.32-2.21-0.3c-0.07,0-0.15,0.01-0.21-0.02c-0.56-0.21-1.14-0.13-1.72-0.2c-0.84-0.09-1.65,0.01-2.48,0.13   c-0.04,0.01-0.08,0.02-0.13,0.01c-1.28-0.04-2.56,0.09-3.85,0.09c-0.77,0-1.54-0.03-2.32,0.14c-0.65,0.14-1.32,0.04-1.99,0.05   c-0.45,0.01-0.9-0.01-1.34,0.14c-0.13,0.04-0.28,0.05-0.42,0.05c-0.9,0-1.81-0.03-2.71,0c-1.13,0.04-2.26-0.02-3.39,0   c-0.03,0-0.06,0.01-0.08,0.01C11.71,60.7,9.51,60.88,7.31,60.83z M54.11,62.64c-0.04,0.12-0.13,0.19-0.25,0.19   c-0.1,0-0.2,0-0.3-0.02c-0.54-0.08-1.08-0.17-1.63-0.26c-0.72-0.11-1.43-0.11-2.14,0.06c-0.08,0.02-0.17,0.05-0.25,0.04   c-0.59-0.06-1.14,0.19-1.72,0.21c-0.16,0-0.29,0.1-0.43,0.16c-0.65,0.25-1.34,0.36-2.02,0.44c-0.47,0.05-0.91,0.17-1.36,0.28   c-0.91,0.21-1.82,0.36-2.75,0.43c-0.28,0.02-0.56,0.05-0.84,0.08c-0.87,0.09-1.68-0.07-2.42-0.55c-0.53-0.34-1.1-0.62-1.69-0.87   c-0.11-0.04-0.2-0.1-0.27-0.19c-0.22-0.27-0.5-0.36-0.85-0.38c-0.86-0.06-1.72-0.08-2.57-0.13c-1.44-0.07-2.88-0.11-4.31-0.07   c-1.93,0.06-3.87-0.07-5.8,0c-0.34,0.01-0.68,0.03-1.01,0.08c-1.29,0.18-2.58,0.24-3.88,0.27c-0.73,0.02-1.46,0.04-2.19,0.2   c-0.48,0.11-0.98,0.1-1.47,0.13c-0.15,0.01-0.3-0.04-0.35-0.19c-0.09-0.3-0.3-0.54-0.36-0.86c0.18-0.22,0.39-0.16,0.58-0.16   c1.99,0,3.98,0,5.97,0c0.49,0,0.99,0.01,1.47-0.15c0.18-0.06,0.39-0.06,0.59-0.06c0.51-0.01,1.02-0.01,1.52-0.01   c0.45,0,0.9-0.01,1.34-0.14c0.23-0.07,0.48-0.04,0.72-0.05c0.64-0.01,1.27,0.02,1.9-0.02c0.7-0.05,1.4-0.16,2.11-0.14   c0.17,0,0.34-0.02,0.51,0.01c1.07,0.2,2.14,0.12,3.21,0.08c0.53-0.02,1.06,0.04,1.58,0.2c0.47,0.14,0.95,0.26,1.43,0.39   c0.5,0.13,0.93,0.41,1.39,0.61c0.31,0.14,0.6,0.3,0.96,0.31c0.28,0.01,0.53,0.16,0.8,0.24c0.73,0.21,1.46,0.14,2.18,0.06   c0.46-0.05,0.92-0.12,1.39-0.13c0.57-0.01,1.12-0.11,1.68-0.21c0.28-0.05,0.55-0.13,0.8-0.27c0.69-0.37,1.42-0.48,2.2-0.45   c0.83,0.02,1.66,0.02,2.5-0.02c0.75-0.03,1.49-0.02,2.24,0.08c0.43,0.06,0.87,0.05,1.31,0.05C54.07,61.92,54.27,62.21,54.11,62.64z    M61.32,59.59c-0.36,1.4-0.35,2.85-0.52,4.3c-0.05,0.42-0.31,3.1-0.37,4.04c-0.08,1.1-0.33,2.15-0.67,3.2   c-0.36,1.1-1.12,1.9-2,2.61c-0.04,0.03-0.1,0.05-0.15,0.07c-0.02,0.01-0.29,0.26-0.29,0.26s0.24-0.66,0.36-0.81   c0.2-0.24,0.4-0.47,0.54-0.75c0.05-0.11,0.1-0.2,0-0.29c-0.08-0.03-0.14-0.01-0.17,0.04c-0.31,0.52-0.65,1.01-1.08,1.44   c-0.08,0.08-0.14,0.18-0.21,0.27c-0.05,0.07-0.09,0.15-0.15,0.2c-0.31,0.28-1.54,0.51-1.94,0.36c-0.12-0.04-0.53-0.12-0.53-0.12   s0.31-0.35,0.41-0.44c0.54-0.47,0.89-1.09,1.35-1.62c0.13-0.15,0.21-0.33,0.18-0.53c-0.14-0.08-0.2,0.03-0.27,0.08   c-0.22,0.17-0.45,0.35-0.61,0.59c-0.37,0.55-1.32,1.89-2.07,1.67c-0.69-0.2-1.27-0.31-1.78-0.84c0,0,0.95-0.41,1.13-0.53   c1.14-0.75,1.98-2.07,2.48-3.33c0.62-1.56,0.25-3.67,0.25-5.32c0-1.14-0.03-2.28,0.04-3.42c0.09-1.45,0.83-2.81,1.73-3.92   c0.37-0.46,0.7-0.96,1.03-1.44c0.28-0.41,0.62-0.77,0.98-1.11c0.34-0.32,1.49-0.1,1.49-0.1s-0.25,0.21-0.33,0.31   c-0.92,1.12-1.73,2.32-2.41,3.61c-0.08,0.15-0.19,0.28-0.27,0.43c-0.07,0.12-0.08,0.24,0.09,0.33c0.31-0.11,0.49-0.38,0.67-0.65   c0.77-1.18,1.57-2.33,2.47-3.42c0.05-0.07,0.11-0.13,0.15-0.2c0.41-0.64,1.29-0.2,1.29-0.2s-0.05,0.16-0.14,0.33   c-0.08,0.15-0.16,0.31-0.27,0.43c-0.6,0.62-1.06,1.35-1.58,2.03c-0.44,0.58-0.91,1.14-1.23,1.81c-0.06,0.13-0.14,0.25-0.04,0.39   c0.33-0.13,1.12-1.08,2.04-2.26c0.63-0.81,1.15-1.7,1.76-2.54c0.39,0.03,0.76,0.07,1.11,0.25c0.36,0.19,0.42,0.31,0.14,0.58   c-0.31,0.31-0.59,0.65-0.81,1.02c-0.4,0.68-1,1.22-1.34,1.95C61.56,58.76,61.42,59.17,61.32,59.59z M70.15,65.26   c-0.35-0.1-0.72-0.14-1.07-0.23c-0.29-0.07-0.58-0.11-0.88-0.11c-0.7-0.01-1.36-0.18-2.03-0.35c-0.14-0.03-0.28-0.07-0.42-0.06   c-0.7,0.03-1.37-0.16-2.04-0.27c-0.52-0.08-1.03-0.13-1.55-0.15c-0.52-0.01-0.62-0.13-0.53-0.65c0.04-0.2,0.03-0.43,0.24-0.65   c0.31,0.12,0.64,0.16,0.97,0.24c0.26,0.07,0.52,0.12,0.79,0.12c0.48-0.01,0.92,0.16,1.36,0.28c0.53,0.15,1.04,0.3,1.6,0.35   c0.63,0.05,1.25,0.19,1.87,0.33c0.74,0.18,1.45,0.48,2.22,0.49c0.14,0,0.29,0.01,0.37,0.16C70.92,65.21,70.62,65.4,70.15,65.26z    M83.01,64.47c-0.07,0.56-0.25,1.09-0.51,1.59c-0.16,0.31-0.28,0.62-0.32,0.99c-0.04,0.43-0.01,1.02-0.22,1.4   c-0.21,0.38-0.57,0.47-1.06,0.43c-1.01-0.1-2.02-0.2-3.02-0.29c-0.65-0.06-1.33-0.14-1.95-0.34c-0.33-0.1-0.67-0.13-1.01-0.09   c-0.65,0.09-1.25-0.15-1.87-0.27c-0.49-0.1-0.98-0.22-1.48-0.31c-0.38-0.07-0.52-0.26-0.38-0.62c0.17-0.42,0.3-0.85,0.59-1.21   c0.04-0.05,0.08-0.11,0.11-0.18c0.22-0.46,0.3-0.52,0.77-0.35c0.86,0.31,1.76,0.5,2.63,0.75c0.45,0.13,0.92,0.25,1.4,0.28   c0.56,0.03,1.11,0.18,1.66,0.3c0.75,0.17,1.52,0.3,2.28,0.43c0.25,0.04,0.39-0.15,0.52-0.31c0.22-0.29,0.34-0.64,0.49-0.98   c0.25-0.59,0.5-1.18,0.7-1.78C82.89,63.86,83.06,64.01,83.01,64.47z M95.17,28.64c-0.21,0.82-0.37,1.65-0.63,2.45   c-0.13,0.4-0.22,0.81-0.34,1.21c-0.15,0.49-0.3,0.99-0.4,1.5c-0.15,0.81-0.46,1.56-0.71,2.34c-0.15,0.45-0.3,0.9-0.38,1.38   c-0.08,0.45-0.25,0.89-0.46,1.3c-0.29,0.58-0.51,1.18-0.75,1.78c-0.08,0.2-0.16,0.39-0.27,0.57c-0.29,0.47-0.49,0.98-0.7,1.48   c-0.24,0.56-0.55,1.07-0.85,1.6c-0.27,0.47-0.47,0.95-0.59,1.48c-0.09,0.4-0.24,0.8-0.38,1.2c-0.18,0.51-0.32,1.04-0.46,1.56   c-0.14,0.53-0.18,1.07-0.32,1.61c-0.18,0.72-0.43,1.42-0.51,2.17c-0.05,0.51-0.16,1.02-0.19,1.55c-0.02,0.27-0.14,0.54-0.22,0.81   c-0.21,0.67-0.49,1.31-0.7,1.98c-0.15,0.5-0.31,0.99-0.44,1.49c-0.15,0.56-0.41,1.07-0.53,1.64c-0.05,0.23-0.13,0.46-0.13,0.7   c0,0.11-0.01,0.23-0.05,0.33c-0.18,0.45-0.22,0.93-0.35,1.38c-0.09,0.29-0.24,0.57-0.27,0.85c-0.14,0.13-0.29,0.1-0.43,0.09   c-0.32-0.02-0.65-0.01-0.97,0.03c-0.47,0.06-0.59-0.1-0.44-0.55c0.12-0.36,0.25-0.72,0.4-1.06c0.3-0.66,0.4-1.38,0.54-2.08   c0.12-0.63,0.34-1.22,0.54-1.82c0.2-0.61,0.38-1.23,0.54-1.86c0.14-0.53,0.32-1.04,0.48-1.57c0.12-0.4,0.25-0.8,0.33-1.21   c0.08-0.44,0.24-0.87,0.42-1.27c0.25-0.56,0.36-1.15,0.55-1.72c0.15-0.44,0.29-0.88,0.5-1.3c0.33-0.66,0.57-1.35,0.77-2.05   c0.12-0.4,0.3-0.79,0.45-1.18c0.21-0.54,0.41-1.08,0.57-1.63c0.1-0.34,0.27-0.66,0.49-0.93c0.48-0.6,0.69-1.32,0.88-2.04   c0.2-0.78,0.49-1.52,0.73-2.28c0.27-0.86,0.8-1.62,1.03-2.49c0.25-0.93,0.76-1.76,1.02-2.68c0.29-1.05,0.75-2.03,1.06-3.07   c0.08-0.29,0.07-0.59,0.04-0.88c-0.03-0.24-0.21-0.36-0.4-0.46c-0.42-0.24-0.89-0.33-1.36-0.42c-0.14-0.03-0.28,0.01-0.43-0.11   c-0.08-0.19-0.03-0.37,0.03-0.55c0.09-0.28,0.25-0.42,0.58-0.46c0.61-0.06,1.17,0.07,1.72,0.33c0.22,0.1,0.43,0.21,0.66,0.27   C95.21,28.12,95.27,28.26,95.17,28.64z"/><path d="M42.28,41.18c-0.55-0.39-1.12-0.76-1.61-1.23c-0.12-0.12-0.27-0.23-0.44-0.23c-0.53-0.03-0.91-0.31-1.21-0.7   c-0.39-0.52-0.94-0.75-1.52-0.93c-0.57-0.18-1.05-0.48-1.36-1.01c-0.13-0.22-0.31-0.37-0.53-0.47c-0.36-0.16-0.74-0.28-1.12-0.37   c-0.57-0.13-1.18-0.12-1.68-0.5c-0.06-0.05-0.16-0.06-0.24-0.07c-0.57-0.09-1.13-0.23-1.69-0.37c-0.18-0.04-0.33-0.04-0.43,0.2   c0.29,0.14,0.59,0.18,0.89,0.25c0.69,0.14,1.37,0.32,1.92,0.81c0.17,0.15,0.36,0.29,0.59,0.33c0.57,0.11,1.1,0.34,1.64,0.55   c0.27,0.11,0.5,0.24,0.69,0.46c0.16,0.2,0.36,0.36,0.6,0.46c0.92,0.42,1.76,0.96,2.56,1.56c0.2,0.15,0.41,0.29,0.65,0.4   c0.39,0.18,0.74,0.41,1.09,0.64c0.48,0.32,0.95,0.66,1.42,0.99c0.13,0.09,0.25,0.23,0.43,0.2c0.07-0.08,0.05-0.15,0.01-0.21   C42.75,41.65,42.57,41.38,42.28,41.18z"/><path d="M36.36,50.54c-0.13-0.09-0.22-0.2-0.33-0.32c-0.4-0.46-0.83-0.92-1.41-1.12c-0.52-0.18-0.96-0.47-1.37-0.8   c-0.16-0.13-0.32-0.22-0.52-0.28c-0.28-0.09-0.56-0.17-0.8-0.38c-0.51-0.46-1.16-0.63-1.79-0.81c-0.21-0.06-0.42-0.01-0.57,0.18   c-0.17,0.23-0.07,0.45,0.21,0.48c0.15,0.02,0.31,0.02,0.47,0c0.5-0.05,0.83,0.17,1.06,0.6c0.21,0.4,0.54,0.61,1.01,0.65   c0.45,0.04,0.89,0.17,1.06,0.69c0.08,0.26,0.31,0.35,0.57,0.36c0.25,0.01,0.51,0.01,0.76,0.03c0.19,0.01,0.35,0.08,0.49,0.21   c0.44,0.41,0.93,0.77,1.32,1.24c0.05,0.06,0.12,0.12,0.28,0.11C36.85,51,36.64,50.75,36.36,50.54z"/><path d="M29.68,41.52c0.09,0.17,0.23,0.28,0.41,0.35c0.43,0.16,0.88,0.28,1.34,0.34c0.37,0.05,0.47,0.12,0.53,0.48   c0.03,0.21,0.13,0.33,0.31,0.41c0.14,0.06,0.28,0.13,0.44,0.14c0.35,0.02,0.65,0.17,0.93,0.37c0.46,0.33,1.02,0.4,1.59,0.55   c-0.03-0.11-0.04-0.15-0.06-0.19c-0.49-0.7-1.13-1.17-1.99-1.29c-0.37-0.05-0.71-0.17-0.97-0.46c-0.41-0.46-0.91-0.79-1.5-0.97   c-0.12-0.04-0.23-0.11-0.32-0.19c-0.67-0.6-1.47-0.64-2.3-0.55c-0.19,0.02-0.33,0.14-0.36,0.35c0.1,0.12,0.2,0.12,0.3,0.12   c0.23,0,0.45,0,0.68,0C29.12,41,29.47,41.13,29.68,41.52z"/><path d="M25.67,29.19c0.6,0.15,1.2,0.27,1.81,0.4c0.4,0.09,0.71,0.24,0.97,0.54c0.19,0.22,0.44,0.32,0.75,0.33   c0.77,0.03,1.51,0.18,2.15,0.65c0.1,0.08,0.22,0.19,0.42,0.06c-0.14-0.19-0.26-0.4-0.4-0.58c-0.37-0.49-0.79-0.89-1.5-0.88   c-0.43,0.01-0.87-0.11-1.2-0.44c-0.08-0.08-0.19-0.11-0.3-0.14c-0.54-0.15-1.1-0.22-1.66-0.26c-0.46-0.03-0.91,0.01-1.39,0.03   C25.39,29.13,25.54,29.15,25.67,29.19z"/><path d="M17.32,40.67c0.64-0.17,1.28-0.15,1.93-0.06c0.19,0.03,0.35,0.12,0.41,0.32c0.16,0.54,0.63,0.76,1.09,0.91   c0.43,0.14,0.88,0.18,1.23,0.58c0.27-0.91,0.05-1.25-0.77-1.32c-0.06,0-0.11-0.01-0.17-0.01c-0.29,0.02-0.48-0.12-0.58-0.4   c-0.16-0.46-0.52-0.66-0.99-0.75c-0.79-0.14-1.54,0.07-2.29,0.25c-0.2,0.05-0.48,0.09-0.55,0.38   C16.85,40.79,17.09,40.73,17.32,40.67z"/><path d="M34.71,23.24c0.02,0.03,0.06,0.06,0.1,0.07c0.4,0.13,0.79,0.32,1.2,0.37c0.39,0.04,0.61,0.2,0.82,0.5   c0.27,0.39,0.92,0.5,1.32,0.26c0.1-0.06,0.18-0.14,0.19-0.27c-0.04-0.14-0.12-0.21-0.22-0.22c-0.36-0.06-0.6-0.28-0.82-0.55   c-0.23-0.28-0.53-0.41-0.9-0.38c-0.25,0.02-0.51,0-0.76,0.01c-0.24,0-0.43-0.05-0.58-0.26c-0.17-0.23-0.42-0.38-0.71-0.42   c-0.39-0.05-0.78-0.09-1.18-0.13c-0.17-0.01-0.34,0-0.35,0.27c0.19,0.14,0.42,0.14,0.64,0.17C33.93,22.74,34.42,22.77,34.71,23.24z   "/><path d="M40.91,35.36c-0.08,0.22,0.1,0.32,0.27,0.4c0.09,0.04,0.18,0.07,0.28,0.1c0.39,0.11,0.79,0.21,1.18,0.31   c0.26,0.07,0.53,0.13,0.7,0.36c0.24,0.31,0.53,0.54,0.85,0.74c0.37,0.23,0.69,0.58,1.2,0.66c0.02-0.09,0.05-0.14,0.05-0.19   c0.04-0.5-0.29-0.77-0.66-0.99c-0.32-0.19-0.61-0.4-0.86-0.67c-0.2-0.23-0.45-0.37-0.75-0.44c-0.6-0.14-1.2-0.29-1.8-0.43   C41.19,35.15,40.99,35.15,40.91,35.36z"/><path d="M27.13,45.1c-0.34-0.28-0.72-0.5-1.18-0.52c-0.1,0-0.2-0.04-0.27-0.11C25.18,44,24.5,44,23.89,43.8   c-0.05-0.02-0.11-0.01-0.17-0.01c-0.18,0.02-0.29,0.12-0.31,0.29c-0.02,0.16,0.06,0.27,0.21,0.33c0.06,0.03,0.14,0.02,0.2,0.05   c0.47,0.19,1.04,0.19,1.36,0.67c0.22,0.33,0.54,0.38,0.9,0.31c0.35-0.08,0.67,0.02,0.96,0.21c0.09,0.06,0.18,0.14,0.28,0.18   c0.19,0.07,0.38,0.11,0.51-0.14C27.67,45.41,27.37,45.29,27.13,45.1z"/><path d="M38.2,28.38c0.36,0.1,0.67,0.27,0.91,0.57c0.36,0.44,0.83,0.72,1.42,0.7c0.35-0.01,0.62,0.13,0.85,0.39   c0.25,0.29,0.82,0.54,1.23,0.55c-0.22-0.26-0.43-0.49-0.55-0.77c-0.29-0.69-0.85-1.02-1.55-1.06c-0.57-0.04-1.09-0.24-1.63-0.39   c-0.38-0.1-0.75-0.3-1.22-0.3C37.82,28.3,38.02,28.33,38.2,28.38z"/><path d="M20.21,36.75c0.35,0.12,0.7,0.05,1.05,0.02c0.41-0.04,0.74,0.08,0.98,0.44c0.24,0.35,0.57,0.63,0.96,0.81   c0.4,0.19,0.75,0.43,1.07,0.74c0.17,0.16,0.36,0.3,0.59,0.33c0.09-0.16-0.04-0.23-0.09-0.32c-0.18-0.28-0.44-0.51-0.6-0.81   c-0.13-0.24-0.33-0.42-0.58-0.54c-0.59-0.27-1.15-0.58-1.71-0.92c-0.66-0.4-1.33-0.29-2-0.04C19.93,36.68,20.08,36.7,20.21,36.75z"/><path d="M29.85,25.6c0.37,0.09,0.72,0.23,1.07,0.38c0.22,0.1,0.45,0.23,0.54,0.46c0.17,0.43,0.52,0.51,0.92,0.53   c0.28,0.01,0.56,0.02,0.84,0.01c0.24-0.01,0.43,0.16,0.69,0.15c-0.01-0.19-0.16-0.26-0.2-0.39c-0.13-0.36-0.42-0.47-0.77-0.46   c-0.18,0.01-0.37,0.02-0.55,0.02c-0.2,0-0.38-0.05-0.44-0.26c-0.09-0.33-0.35-0.45-0.64-0.55c-0.43-0.15-0.88-0.2-1.33-0.19   c-0.14,0-0.28,0-0.34,0.16C29.68,25.58,29.77,25.58,29.85,25.6z"/><path d="M48.65,29.52c0.37,0.15,0.72,0.28,0.99,0.6c0.24,0.28,0.53,0.32,0.83,0.18c-0.15-0.6-0.46-1.06-1.07-1.3   c-0.47-0.18-0.94-0.36-1.25-0.8c-0.1-0.14-0.24-0.27-0.44-0.3C47.58,29.02,47.89,29.21,48.65,29.52z"/><path d="M36.03,32.84c0.23,0.36,0.67,0.51,1.07,0.64c0.14,0.05,0.32,0.05,0.41-0.12c0.08-0.16,0.07-0.33-0.04-0.48   c-0.09-0.12-0.21-0.19-0.34-0.25c-0.18-0.09-0.36-0.19-0.48-0.35c-0.2-0.25-0.46-0.36-0.75-0.43c-0.26-0.07-0.52-0.13-0.78-0.18   c-0.22-0.04-0.39,0.03-0.46,0.3c0.16,0.21,0.37,0.24,0.57,0.31C35.55,32.39,35.82,32.52,36.03,32.84z"/><path d="M23.06,32.83c0.38,0.04,0.74,0.17,1.11,0.22c0.46,0.07,0.89,0.23,1.34,0.34c0.26,0.06,0.5,0.17,0.7,0.36   c0.16,0.16,0.39,0.2,0.6,0.21c0.06-0.1,0.03-0.16,0-0.23c-0.22-0.48-0.68-0.71-1.1-0.93c-0.65-0.33-1.41-0.21-2.1-0.38   c-0.16-0.04-0.34-0.02-0.51-0.02c-0.14,0-0.29-0.02-0.38,0.19C22.8,32.73,22.92,32.81,23.06,32.83z"/><path d="M45.32,33.08c0.48,0.2,0.89,0.48,1.22,0.88c0.16,0.2,0.39,0.32,0.61,0.45c0.15,0.09,0.31,0.14,0.51,0.03   c0.11-0.45,0.08-0.61-0.26-0.86c-0.58-0.45-1.24-0.78-1.93-1.03c-0.15-0.05-0.3-0.18-0.48-0.08   C44.93,32.78,44.99,32.94,45.32,33.08z"/><path d="M39.52,46.18c-0.19-0.16-0.41-0.25-0.63-0.35c-0.16-0.07-0.31-0.05-0.39,0.12c-0.07,0.15,0,0.27,0.14,0.35   c0.24,0.13,0.41,0.34,0.56,0.57c0.07,0.1,0.12,0.23,0.27,0.24C39.91,46.78,39.92,46.52,39.52,46.18z"/><path d="M41.87,24.84c-0.22-0.5-0.83-0.7-1.32-0.4C40.77,24.95,41.4,25.13,41.87,24.84z"/><path d="M47.19,27.44c-0.37-0.35-0.68-0.75-1.08-1.04c-0.12-0.09-0.26-0.17-0.4-0.02C45.95,26.91,46.72,27.49,47.19,27.44z"/><path d="M28.87,34.66c0.02-0.18-0.19-0.45-0.37-0.46c-0.15-0.01-0.23,0.08-0.26,0.22c-0.03,0.2,0.17,0.44,0.36,0.45   C28.74,34.88,28.86,34.79,28.87,34.66z"/><path d="M73.02,26.64c0.48-0.08,0.96-0.05,1.43-0.05c0.5,0,0.92-0.29,1.4-0.37c0.02,0,0.04-0.03,0.07-0.05   c0.41-0.3,0.41-0.3,0.81,0.04c0.38,0.33,0.75,0.57,1.36,0.14c0.32-0.23,0.71-0.28,1.09-0.25c0.57,0.03,1.13,0.12,1.58-0.29   c0.21,0.1,0.38,0.17,0.54,0.25c0.1,0.05,0.2,0.09,0.32,0.05c0.39-0.12,0.78-0.23,1.17-0.36c0.17-0.05,0.3-0.15,0.3-0.36   c-0.09-0.13-0.19-0.13-0.29-0.14c-0.36-0.03-0.7,0.03-1.04,0.13c-0.21,0.07-0.42,0.13-0.6-0.04c-0.23-0.22-0.46-0.19-0.69-0.04   c-0.24,0.16-0.49,0.19-0.77,0.16c-0.73-0.07-1.46-0.04-2.18,0.09c-0.12,0.02-0.23,0.03-0.33-0.03c-0.34-0.2-0.69-0.13-1.02-0.02   c-0.41,0.14-0.85,0.22-1.26,0.32c-0.46,0.12-0.9,0.3-1.4,0.29c-0.28,0-0.58,0.06-0.84,0.19C72.71,26.65,72.74,26.69,73.02,26.64z"/><path d="M57.55,30.68c0.47-0.26,0.95-0.49,1.4-0.77c1.07-0.67,2.17-1.18,3.47-1.18c0.45,0,0.91-0.07,1.3-0.31   c0.37-0.22,0.76-0.29,1.18-0.22c0.27,0.05,0.51-0.05,0.72-0.19c0.2-0.13,0.41-0.22,0.65-0.27c0.27-0.07,0.54-0.15,0.78-0.32   C67.5,27.09,68,26.93,68.56,27c0.14,0.02,0.32,0.03,0.41-0.2c-0.2-0.16-0.41-0.14-0.62-0.16c-0.52-0.03-0.99,0.16-1.47,0.34   c-0.33,0.12-0.65,0.24-0.94,0.45c-0.3,0.22-0.67,0.36-1.04,0.2c-0.55-0.24-1.02-0.12-1.46,0.22c-0.29,0.23-0.6,0.29-0.95,0.27   c-0.93-0.03-1.81,0.17-2.64,0.61c-0.55,0.29-1.06,0.65-1.58,0.98c-0.27,0.17-0.56,0.32-0.78,0.57   C57.35,30.44,57.32,30.57,57.55,30.68z"/><path d="M56.21,42.91c-0.38,0.3-0.81,0.33-1.25,0.25c-0.69-0.13-1.33,0.08-1.93,0.34c-0.7,0.31-1.34,0.77-2.04,1.11   c-0.11,0.05-0.23,0.13-0.2,0.29c0.11,0.15,0.25,0.16,0.4,0.08c0.58-0.32,1.18-0.6,1.76-0.9c0.55-0.28,1.13-0.48,1.78-0.28   c0.52,0.16,1.03,0.05,1.5-0.25c0.11-0.07,0.23-0.12,0.33-0.19c0.32-0.24,0.66-0.24,0.99-0.06c0.39,0.21,0.75,0.18,1.12-0.04   c0.9-0.52,1.89-0.69,2.9-0.83c0.19-0.03,0.39-0.03,0.52-0.18c0.01-0.09-0.02-0.14-0.06-0.17c-0.38-0.31-1.04-0.36-1.48-0.13   c-0.26,0.14-0.49,0.36-0.79,0.39c-0.51,0.04-0.95,0.26-1.39,0.48c-0.24,0.12-0.45,0.15-0.66-0.03c-0.3-0.27-0.65-0.24-1-0.14   C56.54,42.69,56.36,42.79,56.21,42.91z"/><path d="M57.32,33.48c0.04-0.01,0.08-0.03,0.11-0.05c1.06-0.78,2.25-1.28,3.52-1.55c0.61-0.13,1.21-0.25,1.76-0.54   c0.41-0.22,0.88-0.17,1.32-0.24c0.46-0.07,0.89-0.22,1.23-0.67c-0.61-0.05-1.15,0-1.69,0.03c-0.61,0.04-1.2,0.14-1.73,0.48   c-0.16,0.1-0.36,0.16-0.56,0.2c-1.03,0.22-1.99,0.61-2.89,1.16c-0.37,0.23-0.76,0.44-1.1,0.72c-0.17,0.13-0.28,0.28-0.09,0.47   C57.27,33.47,57.3,33.48,57.32,33.48z"/><path d="M57.38,46.39c-0.47,0.11-0.95,0.16-1.41,0.28c-1.1,0.3-2.24,0.42-3.34,0.73c-0.57,0.16-1.15,0.26-1.71,0.43   c-0.92,0.27-1.69,0.81-2.52,1.32c0.19,0.25,0.35,0.13,0.51,0.05c0.75-0.35,1.49-0.73,2.29-0.98c0.44-0.13,0.89-0.12,1.32-0.3   c0.49-0.2,1-0.28,1.52-0.37c0.15-0.03,0.31-0.04,0.45-0.12c0.27-0.15,0.54-0.16,0.81-0.03c0.19,0.09,0.38,0.11,0.58,0.05   c0.65-0.2,1.26-0.48,1.84-0.82c0.08-0.05,0.2-0.06,0.2-0.21C57.74,46.36,57.56,46.35,57.38,46.39z"/><path d="M54.63,38.85c0.31,0.37,0.75,0.44,1.19,0.24c0.23-0.1,0.47-0.2,0.69-0.32c0.35-0.19,0.62-0.45,0.56-0.87   c0-0.07,0-0.11,0-0.15c-0.02-0.67-0.39-1.04-1.05-0.96c-0.66,0.08-1.15,0.48-1.46,1.03C54.38,38.13,54.37,38.54,54.63,38.85z    M55.4,37.7c0.2-0.16,0.44-0.2,0.68-0.14c0.26,0.06,0.36,0.42,0.18,0.65c-0.15,0.18-0.34,0.29-0.53,0.27   c-0.24-0.01-0.44,0.02-0.51-0.21C55.15,38.03,55.23,37.84,55.4,37.7z"/><path d="M59.16,38.34c0.11,0.11,0.32,0.29,0.43,0.28c0.44-0.07,0.72-0.5,1.11-0.7c0.45-0.23,0.64-0.7,1.01-1   c0.21-0.17,0.39-0.37,0.57-0.56c0.11-0.12,0.2-0.26,0.09-0.42c-0.11-0.16-0.27-0.19-0.45-0.14c-0.17,0.05-0.31,0.14-0.43,0.26   c-0.19,0.19-0.38,0.38-0.57,0.57c-0.3,0.29-0.43,0.3-0.77,0.07c-0.09-0.06-0.18-0.13-0.28-0.19c-0.19-0.11-0.38-0.13-0.54,0.04   c-0.15,0.15-0.12,0.33-0.02,0.51c0.03,0.05,0.06,0.09,0.09,0.14c0.32,0.45,0.32,0.45-0.09,0.85   C59.23,38.12,59.13,38.18,59.16,38.34z"/><path d="M67.77,42.38c0.28,0.24,0.59,0.23,0.91,0.09c0.14-0.06,0.29-0.11,0.43-0.16c0.47-0.17,0.94-0.14,1.33,0.15   c0.37,0.27,0.76,0.32,1.19,0.3c0.35-0.01,0.71-0.15,1.05-0.05c0.43,0.13,0.77,0.01,1.15-0.26c-0.48-0.28-0.89-0.35-1.4-0.15   c-0.49,0.19-1.05,0.22-1.53-0.13c-0.23-0.17-0.49-0.27-0.79-0.28c-0.14-0.01-0.28-0.05-0.41-0.09c-0.29-0.09-0.58-0.11-0.88-0.1   c-0.41,0.01-0.81,0.09-1.2,0.19c-0.51,0.12-1.02,0.23-1.54,0.25c-0.17,0.01-0.34,0.04-0.35,0.25c0.11,0.16,0.24,0.11,0.36,0.08   c0.36-0.07,0.73-0.08,1.08-0.19C67.38,42.23,67.59,42.23,67.77,42.38z"/><path d="M73.01,45.96c-0.37,0.03-0.75,0.08-1.12,0.19c-0.28,0.09-0.6,0.07-0.87-0.06c-0.29-0.13-0.55-0.11-0.8,0.05   c-0.25,0.16-0.48,0.16-0.76,0.07c-0.52-0.17-1.02-0.41-1.6-0.35c-0.37,0.04-0.71,0.17-1.05,0.29c0.07,0.16,0.16,0.17,0.24,0.18   c0.85,0.15,1.7,0.27,2.56,0.18c0.18-0.02,0.37-0.04,0.55,0.01c0.46,0.13,0.93,0.09,1.39,0.03c0.15-0.02,0.31-0.03,0.46-0.07   c0.75-0.2,1.41-0.05,1.99,0.47c0.11,0.1,0.24,0.15,0.39,0.06c0.1-0.13,0.1-0.28,0-0.39C74.03,46.23,73.59,45.91,73.01,45.96z"/><path d="M75.49,35c-0.03,0.02-0.15,0.43-0.1,0.5c0.43,0.14,1.01,0.11,1.15,0.79c-0.19,0.17-0.42,0.17-0.6,0.26   c-0.14,0.07-0.3,0.09-0.45,0.1c-0.19,0.01-0.36,0.07-0.51,0.19c-0.12,0.1-0.15,0.23-0.11,0.38c0.04,0.14,0.15,0.21,0.29,0.21   c0.11,0,0.23,0,0.34-0.02c0.36-0.05,0.71-0.15,1.07-0.24c0.93-0.22,1.13-0.68,0.65-1.49C76.77,34.96,76.15,34.46,75.49,35z"/><path d="M80.8,29.33c-0.14,0-0.28,0.03-0.41,0.08c-0.27,0.1-0.56,0.11-0.83,0.04c-0.97-0.27-1.9-0.13-2.79,0.31   c-0.46,0.23-0.93,0.41-1.42,0.53c-0.08,0.02-0.17,0.03-0.19,0.14c0.06,0.15,0.18,0.15,0.31,0.13c0.69-0.12,1.37-0.31,2.04-0.52   c0.52-0.16,1.03-0.27,1.57-0.07c0.38,0.14,0.8,0.13,1.17,0.01c0.33-0.12,0.61-0.14,0.87,0.05c0.17-0.05,0.25-0.14,0.28-0.27   C81.23,29.33,81.22,29.33,80.8,29.33z"/><path d="M70.1,35.77c-0.16-0.18-0.32-0.36-0.49-0.53c-0.12-0.13-0.26-0.22-0.51-0.09c-0.01,0.28-0.07,0.55,0.19,0.78   c0.28,0.24,0.5,0.53,0.72,0.83c0.25,0.35,0.73,0.38,1.02,0.05c0.24-0.26,0.51-0.49,0.79-0.7c0.18-0.13,0.37-0.27,0.4-0.52   c-0.21-0.32-0.36-0.38-0.7-0.24c-0.28,0.11-0.5,0.32-0.73,0.49C70.43,36.11,70.39,36.11,70.1,35.77z"/><path d="M67.47,29.8c0.11,0.24,0.26,0.23,0.4,0.21c0.31-0.04,0.62-0.06,0.92-0.13c0.28-0.07,0.58-0.19,0.87-0.13   c0.41,0.08,0.81,0.09,1.22,0.05c0.21-0.02,0.38,0.02,0.53,0.18c0.09,0.1,0.16,0.24,0.33,0.21c0.13-0.08,0.11-0.18,0.07-0.29   c-0.19-0.52-0.87-0.89-1.44-0.72c-0.48,0.14-0.98,0.16-1.46,0.16C68.36,29.33,67.95,29.6,67.47,29.8z"/><path d="M62.18,46.27c-0.28,0.06-0.56,0.12-0.83,0.02c-0.55-0.2-1.11-0.14-1.67-0.11c-0.15,0.01-0.32,0-0.4,0.17   c0.14,0.32,0.19,0.38,0.48,0.36c0.38-0.03,0.72,0.06,1.04,0.26c0.12,0.08,0.26,0.12,0.4,0.1c0.67-0.1,1.32-0.23,1.8-0.85   C62.69,46.17,62.43,46.21,62.18,46.27z"/><path d="M66.11,37.01c0.09-0.27,0.2-0.53,0.18-0.78c0-0.3-0.02-0.55-0.12-0.79c-0.07-0.16-0.19-0.29-0.37-0.31   c-0.2-0.02-0.29,0.12-0.37,0.29c-0.06,0.14-0.15,0.27-0.15,0.43c-0.01,0.32,0.02,0.65-0.04,0.97c-0.03,0.19,0.26,0.46,0.5,0.5   C65.96,37.36,66.04,37.19,66.11,37.01z"/><path d="M76.01,42.99c-0.25-0.08-0.51-0.13-0.8-0.19c-0.11-0.01-0.23,0.02-0.28,0.16c-0.06,0.15,0.04,0.25,0.15,0.31   c0.28,0.15,0.57,0.29,0.87,0.4c0.18,0.07,0.33-0.06,0.33-0.26C76.28,43.23,76.21,43.05,76.01,42.99z"/><path d="M31.16,57.64c-0.05-0.02-0.11-0.05-0.16-0.05c-0.59-0.01-1.14-0.31-1.75-0.2c-0.05,0.01-0.12-0.01-0.16-0.04   c-0.45-0.29-0.95-0.14-1.43-0.13c0.2,0.04-0.06,0.09,0.12,0.21c0.22,0.15,0.95,0.05,1.21,0.05c0.1,0,0.21,0.01,0.29,0.06   c0.23,0.14,0.48,0.14,0.74,0.14c0.29,0,0.59-0.02,0.86,0.16c0.13,0.08,0.3,0.1,0.35-0.12C31.19,57.68,31.18,57.65,31.16,57.64z"/></g></svg>