<svg xmlns="http://www.w3.org/2000/svg" xmlns:xlink="http://www.w3.org/1999/xlink" version="1.1" x="0px" y="0px" viewBox="0 0 100 125" enable-background="new 0 0 100 100" xml:space="preserve" fill="rgb(203, 173, 118)" width="100"><g><path d="M81.892,80.548H36.054v1.137h45.837c0.314,0,0.568-0.254,0.568-0.568S82.206,80.548,81.892,80.548z"/><path d="M82.344,5.018L24.214,5.054c-0.12,0-0.222,0.006-0.341,0.021c-3.589,0.436-6.393,3.513-6.394,7.215   c-0.001,25.138-0.11,50.299-0.005,75.434v0.045c0,4.231,3.077,7.215,7.299,7.215h57.534c0.125,0,0.227-0.103,0.227-0.228v-1.3   c0-0.125-0.102-0.227-0.227-0.227H26.853c-2.004,0-3.828-0.811-5.159-2.12h60.198c0.314,0,0.568-0.255,0.568-0.568   c0-0.314-0.254-0.569-0.568-0.569H20.746c-0.702-1.036-1.148-2.26-1.245-3.574h5.104V85.26h-5.099   c0.107-1.319,0.565-2.542,1.28-3.575h3.819v-1.137h-2.852c1.327-1.275,3.125-2.062,5.099-2.062v2.062H26.85v1.137h0.003v3.575   H26.85v1.137h0.003v2.418l3.487-1.185l3.497,1.185V78.486h48.507c0.125,0,0.228-0.103,0.228-0.228v-2.935V5.245   C82.571,5.12,82.469,5.018,82.344,5.018z M74.388,27.021l-9.754,10.403c-0.394,0.419-0.885,0.636-1.458,0.646l-1.835,0.03   c-0.578,0.009-1.072,0.231-1.461,0.659l-6.195,6.807l10.938,9.958c0.45,0.409,0.686,0.928,0.7,1.536   c0.015,0.607-0.198,1.136-0.628,1.565l-0.335,0.336c-0.43,0.43-0.959,0.642-1.566,0.628c-0.608-0.016-1.126-0.251-1.534-0.701   l-9.852-10.822l-9.89,10.864c-0.409,0.45-0.927,0.687-1.534,0.7c-0.608,0.015-1.137-0.197-1.566-0.627l-0.336-0.336   c-0.43-0.43-0.642-0.959-0.627-1.566s0.25-1.126,0.7-1.535l10.982-9.995l-6.29-6.909c-0.577-0.635-1.443-0.834-2.239-0.517   c-2.216,0.883-4.885,0.216-7.42-2.319c-3.361-3.361-5.813-8.247-3.163-10.96c2.651-2.713,7.408-1.143,11.235,2.313   c2.927,2.641,3.606,5.428,2.663,7.694c-0.334,0.802-0.138,1.684,0.505,2.269l6.985,6.357l6.914-6.294   c0.427-0.389,0.65-0.883,0.659-1.46l0.03-1.835c0.009-0.574,0.227-1.065,0.646-1.458l10.4-9.752   c0.007-0.007,0.017-0.009,0.026-0.005c0.009,0.005,0.016,0.013,0.016,0.023l0.004,0.691c0.001,0.139-0.048,0.258-0.146,0.356   L61.6,32.128c-0.188,0.188-0.188,0.496,0,0.684C61.788,33,62.095,33,62.283,32.813l8.673-8.673   c0.043-0.044,0.098-0.066,0.159-0.066h0.4l0.136,0.137v0.4c0,0.062-0.022,0.114-0.065,0.158l-8.672,8.673   c-0.188,0.188-0.189,0.496,0,0.685c0.187,0.188,0.495,0.188,0.683,0l8.674-8.673c0.043-0.044,0.096-0.065,0.158-0.065h0.399   l0.138,0.136v0.4c0,0.062-0.023,0.115-0.066,0.159l-8.673,8.672c-0.188,0.188-0.188,0.496,0,0.685c0.188,0.188,0.496,0.188,0.685,0   l8.363-8.363c0.097-0.097,0.215-0.146,0.352-0.146l0.745,0.05c0.01,0,0.018,0.006,0.021,0.016   C74.397,27.004,74.396,27.014,74.388,27.021z"/><path d="M81.892,85.26H36.054v1.137h45.837c0.314,0,0.568-0.255,0.568-0.569C82.46,85.514,82.206,85.26,81.892,85.26z"/></g><text x="0" y="115" fill="#000000" font-size="5px" font-weight="bold" font-family="'Helvetica Neue', Helvetica, Arial-Unicode, Arial, Sans-serif">Created by Nikita Kozin</text><text x="0" y="120" fill="#000000" font-size="5px" font-weight="bold" font-family="'Helvetica Neue', Helvetica, Arial-Unicode, Arial, Sans-serif">from the Noun Project</text></svg>