<svg xmlns="http://www.w3.org/2000/svg" xmlns:xlink="http://www.w3.org/1999/xlink" version="1.1" x="0px" y="0px" viewBox="0 0 98.17 125" enable-background="new 0 0 98.17 100" xml:space="preserve" fill="rgb(203, 173, 118)" width="150" stroke-width= "1"><g><path d="M63.34,55.65c-0.31,0.08-0.48,0.4-0.4,0.7c0.08,0.31,0.4,0.48,0.7,0.4c0.73-0.2,7.15-2.03,8.27-4.67   c0.27-0.62,0.24-1.26-0.08-1.86c-0.27-0.51-0.72-0.86-1.33-1.04c-3.03-0.89-9.91,2.74-17.93,7.22l-0.65,0.36   c-6.88,3.84-10.19,5.21-13.3,6.17c-0.3,0.09-0.47,0.41-0.38,0.72c0.08,0.25,0.3,0.4,0.55,0.4c0.06,0,0.11-0.01,0.17-0.03   c3.18-0.99,6.55-2.38,13.52-6.26l0.65-0.36c1.17-0.65,2.43-1.35,3.71-2.05c-0.02,0.1-0.02,0.2,0.02,0.31   c0.38,1.11,0.29,2.01-0.24,2.67c-0.87,1.08-2.94,1.51-5.68,1.19c-0.32-0.04-0.6,0.19-0.64,0.5c-0.04,0.31,0.19,0.6,0.5,0.64   c0.64,0.08,1.24,0.11,1.81,0.11c2.27,0,3.98-0.59,4.89-1.72c0.55-0.68,1.07-1.89,0.44-3.76c-0.06-0.17-0.19-0.29-0.34-0.35   c5.08-2.73,10.42-5.29,12.58-4.65c0.31,0.09,0.51,0.24,0.64,0.48c0.15,0.29,0.17,0.56,0.04,0.86   C70.1,53.44,65.18,55.14,63.34,55.65z"/><path d="M34.22,50.34c-0.32,0.08-7.91,2-9.23,5.31c-0.36,0.91-0.26,1.83,0.32,2.73c0.11,0.17,0.29,0.27,0.48,0.27   c0.11,0,0.21-0.03,0.31-0.09c0.27-0.17,0.35-0.52,0.18-0.79c-0.37-0.58-0.44-1.13-0.22-1.69c0.92-2.3,6.41-4.12,8.45-4.63   c0.31-0.08,0.49-0.39,0.42-0.69C34.84,50.45,34.53,50.26,34.22,50.34z"/><path d="M33.88,52.8c-0.06,0.01-1.54,0.36-3.03,1.04c-2.16,0.99-3.26,2.16-3.26,3.49c0,0.66,0.26,1.2,0.75,1.56   c0.51,0.37,1.21,0.49,1.94,0.49c1.4,0,2.88-0.46,3.11-0.54c0.3-0.1,0.47-0.42,0.37-0.72c-0.1-0.3-0.42-0.46-0.72-0.37   c-1.15,0.38-3.26,0.76-4.03,0.21c-0.13-0.09-0.28-0.25-0.28-0.63c0-1.76,4-3.09,5.41-3.42c0.31-0.07,0.5-0.38,0.43-0.69   C34.49,52.92,34.19,52.73,33.88,52.8z"/><path d="M11.23,63c0.04,0.01,0.09,0.01,0.13,0.01c0.26,0,0.5-0.18,0.56-0.44c0.07-0.31-0.12-0.62-0.43-0.69   c-1.47-0.34-4.06-1.79-4.95-3.83c-0.51-1.17-0.4-2.4,0.33-3.67c3.83-6.69,18.54-4.32,18.68-4.3c0.31,0.05,0.61-0.16,0.66-0.47   c0.05-0.31-0.16-0.61-0.47-0.66c-0.16-0.03-3.91-0.64-8.24-0.39c-5.92,0.35-9.84,2.11-11.63,5.24c-0.92,1.6-1.05,3.18-0.38,4.7   C6.54,60.94,9.48,62.6,11.23,63z"/><path d="M14.96,52.26c0.31-0.08,0.49-0.39,0.41-0.7c-0.08-0.31-0.39-0.49-0.7-0.41c-0.13,0.03-3.13,0.83-4.13,2.91   c-0.45,0.93-0.43,1.96,0.06,3.05c2.04,4.55,11.45,5.98,11.85,6.04c0.03,0,0.06,0.01,0.08,0.01c0.28,0,0.52-0.2,0.57-0.49   c0.05-0.31-0.17-0.6-0.48-0.65c-0.02,0-2.36-0.35-4.9-1.22c-3.25-1.11-5.35-2.55-6.08-4.16c-0.35-0.78-0.37-1.46-0.07-2.08   C12.34,52.97,14.91,52.28,14.96,52.26z"/><path d="M22.26,53.74c0.02-0.32-0.22-0.59-0.53-0.61c-2.85-0.2-4.8,0.28-5.8,1.42c-0.87,1-0.66,2.11-0.65,2.16   c0.06,0.27,0.29,0.46,0.56,0.46c0.04,0,0.07,0,0.11-0.01c0.31-0.06,0.51-0.36,0.46-0.67c0-0.03-0.1-0.64,0.4-1.2   c0.52-0.58,1.79-1.23,4.84-1.01C21.96,54.29,22.24,54.05,22.26,53.74z"/><path d="M24.22,84.94c-2.82-2.07-4.57-6.81-5.98-10.63c-0.28-0.75-0.54-1.46-0.79-2.1c-1.73-4.4-3.62-5.32-4.9-5.32   c-1.1,0-3.16-0.45-3.18-0.46c-0.31-0.07-0.61,0.13-0.68,0.44c-0.07,0.31,0.13,0.61,0.44,0.68c0.09,0.02,2.2,0.49,3.43,0.49   c0.61,0,2.2,0.45,3.83,4.59c0.25,0.63,0.51,1.33,0.78,2.08c0.87,2.36,1.87,5.06,3.19,7.34c-2.83-2.51-6.72-6.82-9.76-13.41   c-0.13-0.29-0.47-0.41-0.76-0.28c-0.29,0.13-0.41,0.47-0.28,0.76c5.56,12.07,13.71,16.59,14.05,16.78   c0.09,0.05,0.18,0.07,0.27,0.07c0.19,0,0.38-0.1,0.48-0.27C24.53,85.46,24.46,85.12,24.22,84.94z"/><path d="M71.53,74.02c-0.01,0-0.03,0-0.04,0.01c0.02-0.27-0.16-0.53-0.44-0.6c-0.14-0.03-1.34-0.25-2.2,1.98l-0.08,0.21   c-0.73,1.91-2.65,6.98-5.37,8.99c-0.24,0.18-0.3,0.51-0.14,0.76c0.11,0.17,0.29,0.27,0.49,0.27c0.09,0,0.18-0.02,0.27-0.07   c0.09-0.05,2.28-1.2,4.39-3.11c2.87-2.6,4.17-5.35,3.78-7.97C72.14,74.19,71.84,73.97,71.53,74.02z M66.94,82.21   c1.43-2.3,2.42-4.91,2.91-6.18l0.08-0.21c0.38-1,0.78-1.25,0.91-1.26c0.07,0.01,0.14,0.01,0.21-0.01c0,0.04,0,0.08,0.01,0.12   C71.51,77.69,69.15,80.39,66.94,82.21z"/><path d="M97.4,6.65c-0.61-0.55-1.55-0.74-2.88-0.59c-0.69,0.08-6.43,0.99-14.42,2.28c4.25-0.89,7.79-1.65,10.1-2.14   c1.67-0.36,2.78-0.59,3.02-0.64c1.85-0.35,3.72-0.99,3.59-3.03c-0.06-0.93-0.35-1.59-0.9-2.02c-0.64-0.51-1.6-0.64-2.91-0.41   c-2.32,0.41-62.53,14.27-65.42,14.94c-0.41,0.06-1.14,0.42-1.2,1.36c-0.04,0.57,0.21,1,0.44,1.2c0.07,0.06,0.16,0.1,0.24,0.13   c-0.03,0.11-0.06,0.23-0.07,0.36c-0.1,1.2,0.65,1.7,1.06,1.79c0.04,0.01,0.09,0.02,0.13,0.02c0.02,0,0.05,0,0.07,0   c0.03,0,2.67-0.33,6.53-0.79c-0.32,1.29-1.51,6.83,1.19,9.14c0.07,0.06,0.16,0.1,0.25,0.12c0.08,0.02,0.36,0.07,0.69,0.07   c0.2,0,0.43-0.02,0.63-0.09c0.02-0.01,0.04-0.02,0.06-0.03c-1.32,2.87-3.69,5.35-7.64,5.39c-1.78,0.01-3.01-0.57-3.44-1.66   c-0.34-0.85-0.08-1.7,0.23-2c0.15-0.14,0.26-0.11,0.35-0.07c0.29,0.14,0.63,0.02,0.77-0.27c0.14-0.28,0.02-0.63-0.27-0.77   c-0.56-0.27-1.16-0.17-1.63,0.26c-0.76,0.7-0.98,2.11-0.52,3.26c0.36,0.89,1.4,2.38,4.42,2.38c0.03,0,0.06,0,0.1,0   c3.28-0.03,5.99-1.59,7.83-4.5c1.91-3.03,2.29-6.46,2.36-7.8c0.25-4.68-2.28-6.96-2.39-7.05c-0.09-0.08-0.19-0.12-0.3-0.14   c0.14-0.05,0.28-0.09,0.44-0.09c0.01,0,0.01,0,0.02,0c0.61,0.01,1.29,0.52,1.95,1.48c1.55,2.26,2.04,7.74,0.29,12.29   c-1,2.59-3.12,5.9-7.6,6.96c-4.51,1.07-6.82-0.21-7.96-1.47c-1.46-1.62-1.6-3.81-1.09-5.27c0.37-1.06,1.06-1.74,1.91-1.88   c0.8-0.13,1.42-0.02,1.82,0.35c0.73,0.65,0.67,1.92,0.67,1.93c-0.02,0.32,0.22,0.59,0.54,0.61c0.31,0.02,0.59-0.22,0.61-0.54   c0-0.07,0.1-1.82-1.04-2.85c-0.68-0.61-1.62-0.82-2.78-0.63c-1.27,0.21-2.29,1.17-2.8,2.64c-0.62,1.78-0.45,4.45,1.32,6.42   c1.57,1.74,3.75,2.23,5.73,2.23c1.27,0,2.46-0.2,3.35-0.42c1.98-0.47,3.55-1.34,4.78-2.39c-1.3,2.79-3.22,8.02-2.49,13.46   c-0.1-0.19-0.31-0.32-0.55-0.3c-0.33,0.03-8.04,0.68-11.83,6.31c-1.27,1.89-1.21,4.09,0.18,5.74c2.29,2.74,8.28,4.11,18.23-0.27   c3.5-1.54,7.39-3.67,11.14-5.74c10.1-5.54,20.54-11.28,23.82-5.74c0.75,1.26,0.69,2.57-0.19,3.98   c-3.31,5.35-17.25,10.24-27.12,9.52c-0.32-0.02-0.59,0.21-0.61,0.53c-0.02,0.32,0.21,0.59,0.53,0.61c0.7,0.05,1.42,0.08,2.15,0.08   c10.12,0,22.71-4.78,26.03-10.13c0.19-0.31,0.35-0.62,0.48-0.93c0.23,0.49,0.51,1.42,0.17,2.57c-0.48,1.6-2.29,3.96-8.22,6.15   c-0.3,0.11-0.45,0.44-0.34,0.74c0.09,0.23,0.3,0.37,0.54,0.37c0.07,0,0.13-0.01,0.2-0.04c4.87-1.8,7.82-3.99,8.79-6.51   c0.25,0.05,1.05,0.25,1.44,0.79c0.2,0.28,0.26,0.61,0.18,1.02c-0.25,1.31-3.33,2.75-5.22,3.35c-0.3,0.1-0.47,0.42-0.37,0.72   c0.03,0.09,0.07,0.16,0.13,0.22c-10.54,2.05-23.75,3.21-37.37,3.27c-12.77,0.06-24.63-0.87-31.74-2.51   c-4.03-0.92-4.32-1.95-4.32-2.24c0.02-0.78,1.66-1.76,2.99-2.01c0.31-0.06,0.52-0.36,0.46-0.67c-0.06-0.31-0.36-0.52-0.67-0.46   c-1.57,0.3-3.9,1.49-3.93,3.12c0,0.2,0.03,0.39,0.09,0.58c-0.21,0.18-0.26,0.5-0.1,0.74c0.08,0.12,7.54,11.6,10.97,18.56   c2.21,4.48,5.41,7.82,9.8,10.2c0.64,0.35,1.31,0.68,2.01,0.98c-0.09,0.13-0.12,0.29-0.09,0.45c0.08,0.36,2.16,8.73,20.49,8.73   c16.83,0,21.8-9.61,21.92-10.98c0.01-0.12-0.02-0.24-0.08-0.34c0.26-0.15,0.52-0.3,0.78-0.46c3.99-2.46,6.93-5.72,8.73-9.68   c2.84-6.26,8.17-16.74,10.04-18.92c0.15-0.18,0.18-0.42,0.08-0.62c0.67-0.59,0.98-1.22,0.94-1.89c-0.16-2.22-4.36-3.6-6.11-3.7   c-0.31-0.02-0.59,0.22-0.61,0.54c0,0.05,0,0.09,0.01,0.14c-0.06-0.01-0.11-0.03-0.15-0.04c0.27-1.88-0.67-3.19-0.72-3.25   c-0.09-0.12-0.22-0.19-0.35-0.22c0.13-1.01-0.08-2.01-0.63-2.95c-3.51-5.91-12.91-1.44-22.56,3.79c-0.02-0.15-0.1-0.29-0.23-0.38   c-3.78-2.76-7.76-3.18-7.92-3.2c-0.32-0.03-0.6,0.2-0.63,0.51c0,0.03,0,0.06,0,0.09c-1.1-3.72-0.21-8.97,1.51-12.88   c3.57-8.13,4.71-14.39,3.39-18.68c15.84-1.89,35.52-4.35,43.28-5.32l0.44-0.05c1.87-0.23,3.77-0.75,3.77-2.79   C98.17,7.79,97.92,7.11,97.4,6.65z M59.64,94.23c-5.14,3.82-11.74,4.62-16.38,4.62c-5.02,0-11.92-0.69-16.3-3.95   c-2.02-1.5-2.75-3.02-2.98-3.61c4.54,1.78,10.07,2.68,16.52,2.68c1.02,0,2.06-0.02,3.12-0.07c8.24-0.35,15.05-1.89,20.3-4.58   C63.54,90.22,62.28,92.27,59.64,94.23z M73.57,78.06c-1.71,3.75-4.49,6.84-8.29,9.18c-5.3,3.27-12.61,5.13-21.71,5.51   c-9.21,0.39-16.67-0.93-22.17-3.92c-4.17-2.27-7.22-5.44-9.32-9.7c-2.68-5.44-7.78-13.59-9.98-17.04c0.82,0.39,1.88,0.74,3.21,1.04   c6.97,1.6,18.41,2.54,30.8,2.54c0.4,0,0.8,0,1.21,0c14.19-0.07,27.94-1.32,38.73-3.52c2.96-0.6,5.22-1.27,6.81-2   C80.34,64,75.78,73.19,73.57,78.06z M84.53,57.19c0.03,0.45-0.45,2-7.64,3.6c1.68-0.71,4.07-1.99,4.38-3.62   c0.14-0.73,0.01-1.36-0.38-1.9c-0.18-0.25-0.41-0.46-0.64-0.62C82.05,55,84.45,56.15,84.53,57.19z M39.02,22.5   c-0.08,1.49-0.41,3.35-1.12,5.13c-0.1-0.3-0.42-0.46-0.72-0.36c-0.13,0.04-0.38,0.03-0.57,0.01c-2.28-2.18-0.67-8.06-0.65-8.12   c0.02-0.06,0.02-0.13,0.02-0.19c0.4-0.05,0.81-0.1,1.23-0.15c-0.35,1.39-0.88,4.34,0.08,7.1c0.08,0.24,0.3,0.39,0.54,0.39   c0.06,0,0.13-0.01,0.19-0.03c0.3-0.1,0.46-0.43,0.35-0.73c-0.98-2.82-0.19-5.99,0.08-6.9C38.9,19.81,39.09,21.1,39.02,22.5z    M37.93,17.58c-4.96,0.59-8.83,1.07-9.65,1.17c-0.07-0.06-0.17-0.21-0.14-0.55c0.01-0.07,0.02-0.24,0.24-0.26   c0.03,0,0.06-0.01,0.08-0.01c0.03-0.01,3.49-0.7,8.5-1.52c0.02,0,0.05-0.01,0.07-0.02C37.11,16.46,37.51,16.86,37.93,17.58z    M37.91,14.14c-1.32,0-2.14,1.12-2.17,1.17c-0.03,0.05-0.06,0.1-0.07,0.15c-4.17,0.7-7.05,1.27-7.39,1.34   c-0.15,0.01-0.35,0.06-0.54,0.16c-0.03-0.07-0.08-0.13-0.14-0.19c0,0-0.08-0.1-0.07-0.28c0-0.07,0.02-0.27,0.23-0.3   c0.02,0,0.04-0.01,0.06-0.01C28.45,16.03,90.91,1.64,93.2,1.24c0.96-0.17,1.64-0.11,2.01,0.18c0.27,0.21,0.42,0.6,0.46,1.19   c0.05,0.81-0.38,1.4-2.66,1.83c-0.25,0.05-1.3,0.27-3.04,0.64c-7.17,1.53-26.23,5.59-41.35,8.38c-0.01,0-0.02,0.01-0.03,0.01   c-0.36-0.25-0.76-0.42-1.19-0.49c-1.49-0.25-2.83,0.73-2.89,0.77c-0.02,0.02-0.04,0.04-0.06,0.06c-1.62-0.64-3.09-0.05-3.16-0.02   c-0.08,0.03-0.15,0.08-0.2,0.15c-0.91-0.19-1.72,0.03-2.19,0.28c-0.05,0.03-0.09,0.06-0.13,0.1c-0.27-0.1-0.55-0.16-0.83-0.16   C37.93,14.14,37.92,14.14,37.91,14.14z M39.69,33.26c0.14-0.23,0.1-0.51-0.08-0.7c0.73-1.04,1.26-2.11,1.64-3.09   c1.94-5.05,1.3-10.86-0.42-13.35c-0.29-0.42-0.59-0.78-0.9-1.07c0.6-0.12,1.65-0.1,2.63,1.15c3.56,4.57,0.47,13.23-1.68,17.98   c-3.13,6.9-3.66,13.54-1.41,17.77c1.25,2.35,3.32,3.86,6,4.38c-1.06,0.55-2.11,1.07-3.13,1.56c0.01-0.03,0.02-0.05,0.03-0.08   c0.08-0.31-0.11-0.62-0.41-0.7c-0.17-0.05-4.3-1.21-5.57-8.41C35.03,41.06,39.64,33.34,39.69,33.26z M40.7,58.64   c-9.38,4.12-14.96,2.89-16.89,0.58c-1.06-1.26-1.1-2.9-0.1-4.37c3.48-5.16,10.9-5.8,10.97-5.81c0.26-0.02,0.47-0.22,0.52-0.47   c0.02,0.11,0.03,0.21,0.05,0.32c1.36,7.75,5.92,9.19,6.38,9.32C41.32,58.37,41.01,58.51,40.7,58.64z M46.23,35.11   c-2.59,5.91-2.8,12.49-0.5,16.01c0.98,1.5,2.33,2.29,3.91,2.29c0.32,0,0.57-0.26,0.57-0.57c0-0.32-0.26-0.57-0.57-0.57   c-1.19,0-2.18-0.6-2.95-1.77c-0.35-0.53-0.62-1.14-0.84-1.79c0.09,0.15,0.25,0.26,0.43,0.28c0.04,0,3.8,0.4,7.32,2.95   c-0.62,0.34-1.24,0.68-1.86,1.02c-1.79,0.98-3.61,1.98-5.41,2.93c0.03-0.3-0.17-0.57-0.47-0.62c-2.46-0.42-4.28-1.71-5.4-3.83   c-2.08-3.92-1.54-10.19,1.44-16.76c5.01-11.05,3.6-16.52,1.54-19.16c-0.27-0.34-0.55-0.62-0.83-0.84c0.49-0.03,1.13,0.03,1.77,0.38   c1.32,0.73,2.21,2.41,2.66,5.01c0.6,3.46-0.97,7.59-2.64,11.97c-1.91,5.03-3.89,10.23-3.04,15.32c0.05,0.28,0.29,0.48,0.56,0.48   c0.03,0,0.06,0,0.1-0.01c0.31-0.05,0.52-0.35,0.47-0.66c-0.8-4.79,1.12-9.84,2.98-14.73c1.72-4.52,3.35-8.8,2.7-12.57   c-0.44-2.57-1.32-4.39-2.62-5.41c0.39-0.2,1.02-0.44,1.64-0.34c0.51,0.08,0.94,0.38,1.31,0.91C50.35,17.64,51.44,23.25,46.23,35.11   z M94.25,10.38l-0.44,0.05c-7.81,0.98-27.67,3.46-43.55,5.35c-0.21-0.46-0.45-0.9-0.72-1.31c27.99-4.57,44-7.16,45.11-7.28   c0.97-0.11,1.64,0,1.99,0.31c0.26,0.23,0.38,0.63,0.38,1.22C97.02,9.53,96.56,10.09,94.25,10.38z"/><path d="M16.19,40.79c1.56,0,2.83-1.27,2.83-2.83s-1.27-2.83-2.83-2.83c-0.32,0-0.57,0.26-0.57,0.57s0.26,0.57,0.57,0.57   c0.93,0,1.68,0.75,1.68,1.68c0,0.93-0.75,1.68-1.68,1.68c-0.93,0-1.68-0.75-1.68-1.68c0-0.45,0.18-0.87,0.49-1.19   c0.22-0.22,0.22-0.59,0-0.81c-0.22-0.22-0.59-0.22-0.81,0c-0.53,0.53-0.83,1.24-0.83,2C13.36,39.52,14.63,40.79,16.19,40.79z"/><path d="M20.92,46.39c1.29,0,2.33-1.05,2.33-2.33c0-1.29-1.05-2.33-2.33-2.33c-0.32,0-0.57,0.26-0.57,0.57   c0,0.32,0.26,0.57,0.57,0.57c0.66,0,1.19,0.53,1.19,1.19c0,0.65-0.53,1.19-1.19,1.19c-0.65,0-1.19-0.53-1.19-1.19   c0-0.32,0.12-0.62,0.35-0.84c0.22-0.22,0.22-0.59,0-0.81c-0.22-0.22-0.59-0.22-0.81,0c-0.44,0.44-0.68,1.03-0.68,1.65   C18.59,45.35,19.64,46.39,20.92,46.39z"/></g></svg>