<svg xmlns="http://www.w3.org/2000/svg" viewBox="0 0 64 80" x="0px" y="0px"><title>Kitchen</title><g data-name="Layer 39"><path d="M45.2,25.817a1,1,0,0,0,.707-.293L58.638,12.8a5,5,0,1,0-7.072-7.07L38.839,18.453a1,1,0,0,0,0,1.414l-2.121,2.121L4.19,54.515a1,1,0,0,0,0,1.414,13,13,0,0,0,18.385,0L46.617,31.887a1,1,0,0,0,0-1.414l-3.31-3.31,1.459-1.458A.987.987,0,0,0,45.2,25.817ZM52.98,7.139a3,3,0,1,1,4.244,4.242L45.2,23.4,40.96,19.16ZM21.161,54.515a11.012,11.012,0,0,1-14.817.675L37.425,24.109l3.759,3.759,0,0,0,0L44.5,31.18ZM38.839,22.7l1.414-1.414,3.054,3.054-1.414,1.414Z"/></g><text x="0" y="79" fill="#000000" font-size="5px" font-weight="bold" font-family="'Helvetica Neue', Helvetica, Arial-Unicode, Arial, Sans-serif">Created by Ahmad Faiz</text><text x="0" y="84" fill="#000000" font-size="5px" font-weight="bold" font-family="'Helvetica Neue', Helvetica, Arial-Unicode, Arial, Sans-serif">from the Noun Project</text></svg>