<svg xmlns="http://www.w3.org/2000/svg" viewBox="0 0 64 80" x="0px" y="0px"><title>Kitchen</title><g data-name="Layer 37"><path d="M32,21A11,11,0,1,0,43,32,11.013,11.013,0,0,0,32,21Zm0,20a9,9,0,1,1,9-9A9.01,9.01,0,0,1,32,41ZM13,25V22.1a4.369,4.369,0,0,0,2-3.6V9a1,1,0,0,0-2,0v9.5A2.748,2.748,0,0,1,10.062,21H8.937A2.748,2.748,0,0,1,6,18.5V9A1,1,0,0,0,4,9v9.5a4.369,4.369,0,0,0,2,3.6V25a.99.99,0,0,0,.879.976l-.8,26.495a3.426,3.426,0,1,0,6.848,0l-.8-26.495A.99.99,0,0,0,13,25ZM10.523,53.567a1.458,1.458,0,0,1-2.046,0,1.413,1.413,0,0,1-.4-1.036L8.879,26h1.242l.8,26.531A1.413,1.413,0,0,1,10.523,53.567ZM11,24H8V22.914A5.442,5.442,0,0,0,8.937,23h1.125A5.444,5.444,0,0,0,11,22.914ZM7,18V9A1,1,0,0,1,9,9v8h1V9a1,1,0,0,1,2,0v9a1,1,0,0,1-1,1H8A1,1,0,0,1,7,18Zm25-5A19,19,0,1,0,51,32,19.021,19.021,0,0,0,32,13Zm0,36A17,17,0,1,1,49,32,17.019,17.019,0,0,1,32,49ZM54.5,8C51.416,8,49,11.953,49,17c0,2.83.836,4.339,2,5.14V25a.99.99,0,0,0,.879.976l-.8,26.495a3.426,3.426,0,1,0,6.848,0l-.8-26.495A.99.99,0,0,0,58,25V22.14c1.164-.8,2-2.31,2-5.14C60,11.953,57.584,8,54.5,8Zm1.023,45.567a1.458,1.458,0,0,1-2.046,0,1.413,1.413,0,0,1-.4-1.036L53.879,26h1.242l.8,26.531A1.413,1.413,0,0,1,55.523,53.567ZM56,24H53V22.894a10.666,10.666,0,0,0,3,0Zm-1.5-3c-2.049,0-3.5-.287-3.5-4,0-4.125,1.845-7,3.5-7S58,12.875,58,17C58,20.713,56.549,21,54.5,21Z"/></g><text x="0" y="79" fill="#000000" font-size="5px" font-weight="bold" font-family="'Helvetica Neue', Helvetica, Arial-Unicode, Arial, Sans-serif">Created by Ahmad Faiz</text><text x="0" y="84" fill="#000000" font-size="5px" font-weight="bold" font-family="'Helvetica Neue', Helvetica, Arial-Unicode, Arial, Sans-serif">from the Noun Project</text></svg>