<svg xmlns="http://www.w3.org/2000/svg" xmlns:xlink="http://www.w3.org/1999/xlink" version="1.1" x="0px" y="0px" viewBox="0 0 100 125" style="enable-background:new 0 0 100 100;" xml:space="preserve"><style type="text/css">
	.st0{fill-rule:evenodd;clip-rule:evenodd;}
</style><path class="st0" d="M12.211,31.037C15.171,28.533,33.207,13,34.914,12.072c4.657-2.531,8.002,2.279,8.966,2.733l17.585,3.172  c2.241,0.404,3.828,2.105,4.836,3.993l22.336,38.688c2.419,4.19,1.598,7.235-2.593,9.654L65.248,82.319  c-0.214,4.435-2.616,6.341-7.06,6.341H17.092c-4.843,0-7.077-2.233-7.077-7.077V36.787C10.015,34.647,10.459,32.519,12.211,31.037  L12.211,31.037z M63.069,31.037c1.841,1.557,2.124,3.573,2.196,5.75v40.866l18.771-10.837c2.221-1.282,2.389-1.927,1.106-4.149  L62.744,23.882c-0.451-0.776-1.113-1.775-1.991-1.934l-10.714-1.933L63.069,31.037L63.069,31.037z M61.216,81.15l0-44.363  c0-0.966-0.115-1.879-0.756-2.666L38.437,15.616c-1.096-0.596-1.922,0.155-2.779,0.881L14.821,34.121  c-0.683,0.577-0.756,1.76-0.756,2.666v44.795c0,2.572,0.456,3.028,3.028,3.028h41.096C61.027,84.61,61.216,84.022,61.216,81.15  L61.216,81.15z M37.64,21.62c-3.35,0-6.067,2.717-6.067,6.067c0,5.386,6.543,8.103,10.357,4.29  C45.743,28.163,43.026,21.62,37.64,21.62L37.64,21.62z M39.067,26.26c-1.879-1.879-4.732,0.974-2.853,2.853  C38.092,30.992,40.946,28.139,39.067,26.26z"/><text x="0" y="115" fill="#000000" font-size="5px" font-weight="bold" font-family="'Helvetica Neue', Helvetica, Arial-Unicode, Arial, Sans-serif">Created by Hadi Mulyono</text><text x="0" y="120" fill="#000000" font-size="5px" font-weight="bold" font-family="'Helvetica Neue', Helvetica, Arial-Unicode, Arial, Sans-serif">from the Noun Project</text></svg>